<svg width="1278" height="449" viewBox="0 0 1278 449" fill="none" xmlns="http://www.w3.org/2000/svg">
<path d="M4.5202 101H18.6322V65.0002H48.0082C69.4642 65.0002 85.1602 53.6242 85.1602 32.1682C85.1602 10.7122 69.8962 0.200195 48.4402 0.200195H4.5202V101ZM18.6322 52.0402V13.1602H48.0082C60.9682 13.1602 70.7602 19.2082 70.7602 32.1682C70.7602 45.1282 60.5362 52.0402 47.5762 52.0402H18.6322Z" fill="#443B3B"/>
<path d="M102.395 101H116.507V55.9282H177.563V101H191.675V0.200195H177.563V42.9682H116.507V0.200195H102.395V101Z" fill="#443B3B"/>
<path d="M214.755 101H251.331C284.739 101 307.923 83.4322 307.923 50.0242C307.923 16.6162 286.323 0.200195 252.915 0.200195H214.755V101ZM228.867 88.0402V13.1602H250.611C277.539 13.1602 293.523 23.0962 293.523 50.0242C293.523 76.9522 276.243 88.0402 249.315 88.0402H228.867Z" fill="#443B3B"/>
<path d="M1150.04 101H1164.15V0.200195H1150.04V101Z" fill="#443B3B"/>
<path d="M1187.16 101H1200.7V16.6162H1200.98L1256.71 101H1276.44V0.200195H1262.9V84.5842H1262.62L1206.89 0.200195H1187.16V101Z" fill="#443B3B"/>
<path d="M52.7602 275.44C78.9682 275.44 98.1202 258.016 102.008 233.68H87.4642C83.8642 251.104 70.6162 262.48 52.7602 262.48C29.7202 262.48 14.6002 246.64 14.6002 223.6C14.6002 200.56 29.7202 184.72 52.7602 184.72C70.0402 184.72 84.7282 196.672 87.4642 213.52H101.864C98.6962 189.472 78.5362 171.76 52.7602 171.76C22.2322 171.76 0.200195 193.072 0.200195 223.6C0.200195 254.128 22.2322 275.44 52.7602 275.44Z" fill="#443B3B"/>
<path d="M167.764 275.44C197.284 275.44 219.172 253.12 219.172 223.6C219.172 194.08 197.284 171.76 167.764 171.76C138.244 171.76 116.356 194.08 116.356 223.6C116.356 253.12 138.244 275.44 167.764 275.44ZM167.764 262.48C145.732 262.48 130.756 245.632 130.756 223.6C130.756 201.568 145.732 184.72 167.764 184.72C189.796 184.72 204.772 201.568 204.772 223.6C204.772 245.632 189.796 262.48 167.764 262.48Z" fill="#443B3B"/>
<path d="M237.958 274H251.494V189.616H251.782L285.478 274H299.878L333.574 189.616H333.862V274H347.686V173.2H325.798L293.11 255.712H292.822L260.134 173.2H237.958V274Z" fill="#443B3B"/>
<path d="M370.708 274H384.82V238H414.196C435.652 238 451.348 226.624 451.348 205.168C451.348 183.712 436.084 173.2 414.628 173.2H370.708V274ZM384.82 225.04V186.16H414.196C427.156 186.16 436.948 192.208 436.948 205.168C436.948 218.128 426.724 225.04 413.764 225.04H384.82Z" fill="#443B3B"/>
<path d="M511.063 275.44C537.127 275.44 554.263 258.88 554.263 232.816V173.2H540.151V232.384C540.151 250.96 529.639 262.48 511.063 262.48C492.487 262.48 481.975 250.96 481.975 232.384V173.2H467.863V232.816C467.863 258.88 484.999 275.44 511.063 275.44Z" fill="#443B3B"/>
<path d="M601.927 274H616.039V186.16H651.463V173.2H566.503V186.16H601.927V274Z" fill="#443B3B"/>
<path d="M641.456 274H655.712L666.368 249.088H717.92L728.432 274H743.696L699.776 173.2H685.376L641.456 274ZM671.696 236.704L692.144 188.752H692.432L712.736 236.704H671.696Z" fill="#443B3B"/>
<path d="M769.13 274H783.242V186.16H818.666V173.2H733.706V186.16H769.13V274Z" fill="#443B3B"/>
<path d="M831.676 274H845.788V173.2H831.676V274Z" fill="#443B3B"/>
<path d="M915.889 275.44C945.409 275.44 967.297 253.12 967.297 223.6C967.297 194.08 945.409 171.76 915.889 171.76C886.369 171.76 864.481 194.08 864.481 223.6C864.481 253.12 886.369 275.44 915.889 275.44ZM915.889 262.48C893.857 262.48 878.881 245.632 878.881 223.6C878.881 201.568 893.857 184.72 915.889 184.72C937.921 184.72 952.897 201.568 952.897 223.6C952.897 245.632 937.921 262.48 915.889 262.48Z" fill="#443B3B"/>
<path d="M986.083 274H999.619V189.616H999.907L1055.63 274H1075.36V173.2H1061.83V257.584H1061.54L1005.81 173.2H986.083V274Z" fill="#443B3B"/>
<path d="M1088.36 274H1102.62L1113.27 249.088H1164.83L1175.34 274H1190.6L1146.68 173.2H1132.28L1088.36 274ZM1118.6 236.704L1139.05 188.752H1139.34L1159.64 236.704H1118.6Z" fill="#443B3B"/>
<path d="M1203.63 274H1277.5V261.04H1217.74V173.2H1203.63V274Z" fill="#443B3B"/>
<path d="M4.5202 447H18.0562V362.616H18.3442L52.0402 447H66.4402L100.136 362.616H100.424V447H114.248V346.2H92.3602L59.6722 428.712H59.3842L26.6962 346.2H4.5202V447Z" fill="#443B3B"/>
<path d="M137.27 447H215.462V434.04H151.382V401.784H209.702V388.824H151.382V359.16H214.022V346.2H137.27V447Z" fill="#443B3B"/>
<path d="M232.755 447H269.331C302.739 447 325.923 429.432 325.923 396.024C325.923 362.616 304.323 346.2 270.915 346.2H232.755V447ZM246.867 434.04V359.16H268.611C295.539 359.16 311.523 369.096 311.523 396.024C311.523 422.952 294.243 434.04 267.315 434.04H246.867Z" fill="#443B3B"/>
<path d="M344.692 447H358.804V346.2H344.692V447Z" fill="#443B3B"/>
<path d="M371.737 447H385.993L396.649 422.088H448.201L458.713 447H473.977L430.057 346.2H415.657L371.737 447ZM401.977 409.704L422.425 361.752H422.713L443.017 409.704H401.977Z" fill="#443B3B"/>
<path d="M721.27 447H757.846C791.254 447 814.438 429.432 814.438 396.024C814.438 362.616 792.838 346.2 759.43 346.2H721.27V447ZM735.382 434.04V359.16H757.126C784.054 359.16 800.038 369.096 800.038 396.024C800.038 422.952 782.758 434.04 755.83 434.04H735.382Z" fill="#443B3B"/>
<path d="M833.208 447H911.4V434.04H847.32V401.784H905.64V388.824H847.32V359.16H909.96V346.2H833.208V447Z" fill="#443B3B"/>
<path d="M969.3 448.44C991.044 448.44 1011.35 439.8 1011.35 418.056C1011.35 375.144 944.1 402.216 944.1 374.424C944.1 362.328 956.628 357.144 968.724 357.144C985.428 357.144 995.796 367.224 995.796 383.784H1009.91C1009.48 359.448 993.348 344.76 968.58 344.76C948.132 344.76 930.132 354.84 930.132 375C930.132 418.056 997.38 390.84 997.38 418.632C997.38 431.448 982.548 436.056 969.732 436.056C952.596 436.056 940.068 427.272 939.924 407.256H925.812C925.668 435.336 945.972 448.44 969.3 448.44Z" fill="#443B3B"/>
<path d="M1031.63 447H1045.74V346.2H1031.63V447Z" fill="#443B3B"/>
<path d="M1116.99 448.44C1133.84 448.44 1147.23 441.672 1153.71 429.576H1154L1157.03 447H1169.12L1164.8 420.216V393.432H1099.28V406.392H1151.27C1150.4 425.4 1136 435.48 1116.99 435.48C1093.95 435.48 1078.83 419.64 1078.83 396.6C1078.83 373.56 1093.95 357.72 1116.99 357.72C1133.7 357.72 1145.79 366.648 1149.11 381.48H1163.65C1159.04 357.72 1140.9 344.76 1116.99 344.76C1086.47 344.76 1064.43 366.072 1064.43 396.6C1064.43 427.128 1086.47 448.44 1116.99 448.44Z" fill="#443B3B"/>
<path d="M1187.16 447H1200.7V362.616H1200.98L1256.71 447H1276.44V346.2H1262.9V430.584H1262.62L1206.89 346.2H1187.16V447Z" fill="#443B3B"/>
</svg>
