<svg width="1362" height="669" viewBox="0 0 1362 669" fill="none" xmlns="http://www.w3.org/2000/svg">
<path d="M4.77783 107.585H19.8256V69.1615H51.1496C74.0283 69.1615 90.7651 57.0198 90.7651 34.1197C90.7651 11.2195 74.489 0 51.6102 0H4.77783V107.585ZM19.8256 55.3292V13.8323H51.1496C64.9689 13.8323 75.4103 20.2874 75.4103 34.1197C75.4103 47.952 64.5083 55.3292 50.6889 55.3292H19.8256Z" fill="white"/>
<path d="M109.143 107.585H124.191V59.4789H189.295V107.585H204.343V0H189.295V45.6466H124.191V0H109.143V107.585Z" fill="white"/>
<path d="M228.953 107.585H267.954C303.578 107.585 328.299 88.8341 328.299 53.1775C328.299 17.5209 305.267 0 269.643 0H228.953V107.585ZM244.001 93.7522V13.8323H267.187C295.9 13.8323 312.944 24.4371 312.944 53.1775C312.944 81.9179 294.518 93.7522 265.805 93.7522H244.001Z" fill="white"/>
<path d="M383.701 107.585H398.749V0H383.701V107.585Z" fill="white"/>
<path d="M423.288 107.585H437.722V17.5209H438.029L497.452 107.585H518.488V0H504.055V90.0636H503.748L444.324 0H423.288V107.585Z" fill="white"/>
<path d="M56.0453 295.748C83.9912 295.748 104.413 277.151 108.559 251.177H93.0505C89.2118 269.774 75.0853 281.915 56.0453 281.915C31.4775 281.915 15.3549 265.009 15.3549 240.418C15.3549 215.828 31.4775 198.922 56.0453 198.922C74.4711 198.922 90.1331 211.678 93.0505 229.66H108.405C105.027 203.993 83.5305 185.089 56.0453 185.089C23.493 185.089 0 207.836 0 240.418C0 273.001 23.493 295.748 56.0453 295.748Z" fill="white"/>
<path d="M178.676 295.748C210.153 295.748 233.492 271.925 233.492 240.418C233.492 208.912 210.153 185.089 178.676 185.089C147.198 185.089 123.859 208.912 123.859 240.418C123.859 271.925 147.198 295.748 178.676 295.748ZM178.676 281.915C155.183 281.915 139.214 263.933 139.214 240.418C139.214 216.904 155.183 198.922 178.676 198.922C202.168 198.922 218.138 216.904 218.138 240.418C218.138 263.933 202.168 281.915 178.676 281.915Z" fill="white"/>
<path d="M253.523 294.211H267.957V204.147H268.264L304.194 294.211H319.549L355.48 204.147H355.787V294.211H370.528V186.626H347.188L312.333 274.692H312.025L277.17 186.626H253.523V294.211Z" fill="white"/>
<path d="M395.076 294.211H410.124V255.788H441.448C464.327 255.788 481.063 243.646 481.063 220.746C481.063 197.846 464.787 186.626 441.908 186.626H395.076V294.211ZM410.124 241.955V200.458H441.448C455.267 200.458 465.709 206.914 465.709 220.746C465.709 234.578 454.807 241.955 440.987 241.955H410.124Z" fill="white"/>
<path d="M544.738 295.748C572.53 295.748 590.803 278.073 590.803 250.255V186.626H575.755V249.794C575.755 269.62 564.546 281.915 544.738 281.915C524.93 281.915 513.721 269.62 513.721 249.794V186.626H498.673V250.255C498.673 278.073 516.946 295.748 544.738 295.748Z" fill="white"/>
<path d="M641.627 294.211H656.675V200.458H694.448V186.626H603.854V200.458H641.627V294.211Z" fill="white"/>
<path d="M683.778 294.211H698.979L710.342 267.622H765.312L776.521 294.211H792.797L745.965 186.626H730.61L683.778 294.211ZM716.023 254.404L737.827 203.225H738.134L759.784 254.404H716.023Z" fill="white"/>
<path d="M819.918 294.211H834.966V200.458H872.739V186.626H782.145V200.458H819.918V294.211Z" fill="white"/>
<path d="M886.612 294.211H901.66V186.626H886.612V294.211Z" fill="white"/>
<path d="M976.409 295.748C1007.89 295.748 1031.23 271.925 1031.23 240.418C1031.23 208.912 1007.89 185.089 976.409 185.089C944.932 185.089 921.592 208.912 921.592 240.418C921.592 271.925 944.932 295.748 976.409 295.748ZM976.409 281.915C952.916 281.915 936.947 263.933 936.947 240.418C936.947 216.904 952.916 198.922 976.409 198.922C999.902 198.922 1015.87 216.904 1015.87 240.418C1015.87 263.933 999.902 281.915 976.409 281.915Z" fill="white"/>
<path d="M1051.26 294.211H1065.69V204.147H1066L1125.42 294.211H1146.46V186.626H1132.02V276.69H1131.72L1072.29 186.626H1051.26V294.211Z" fill="white"/>
<path d="M1160.32 294.211H1175.52L1186.88 267.622H1241.85L1253.06 294.211H1269.34L1222.51 186.626H1207.15L1160.32 294.211ZM1192.56 254.404L1214.37 203.225H1214.67L1236.33 254.404H1192.56Z" fill="white"/>
<path d="M1283.23 294.211H1362V280.378H1298.28V186.626H1283.23V294.211Z" fill="white"/>
<path d="M861.27 480.837H875.704V390.773H876.011L911.942 480.837H927.296L963.227 390.773H963.534V480.837H978.275V373.252H954.935L920.08 461.318H919.772L884.917 373.252H861.27V480.837Z" fill="white"/>
<path d="M1002.82 480.837H1086.2V467.005H1017.87V432.578H1080.06V418.745H1017.87V387.085H1084.66V373.252H1002.82V480.837Z" fill="white"/>
<path d="M1104.64 480.837H1143.64C1179.26 480.837 1203.99 462.086 1203.99 426.43C1203.99 390.773 1180.95 373.252 1145.33 373.252H1104.64V480.837ZM1119.69 467.005V387.085H1142.87C1171.59 387.085 1188.63 397.689 1188.63 426.43C1188.63 455.17 1170.2 467.005 1141.49 467.005H1119.69Z" fill="white"/>
<path d="M1224 480.837H1239.05V373.252H1224V480.837Z" fill="white"/>
<path d="M1252.84 480.837H1268.04L1279.4 454.248H1334.37L1345.58 480.837H1361.86L1315.02 373.252H1299.67L1252.84 480.837ZM1285.08 441.031L1306.89 389.851H1307.19L1328.84 441.031H1285.08Z" fill="white"/>
<path d="M759.155 667.463H798.156C833.779 667.463 858.501 648.713 858.501 613.056C858.501 577.399 835.468 559.879 799.845 559.879H759.155V667.463ZM774.202 653.631V573.711H797.388C826.102 573.711 843.146 584.316 843.146 613.056C843.146 641.797 824.72 653.631 796.006 653.631H774.202Z" fill="white"/>
<path d="M878.515 667.463H961.892V653.631H893.562V619.204H955.75V605.371H893.562V573.711H960.356V559.879H878.515V667.463Z" fill="white"/>
<path d="M1023.63 669C1046.82 669 1068.47 659.778 1068.47 636.571C1068.47 590.771 996.76 619.665 996.76 590.002C996.76 577.092 1010.12 571.559 1023.02 571.559C1040.83 571.559 1051.88 582.318 1051.88 599.992H1066.93C1066.47 574.018 1049.27 558.342 1022.86 558.342C1001.06 558.342 981.866 569.1 981.866 590.617C981.866 636.571 1053.57 607.523 1053.57 637.186C1053.57 650.864 1037.76 655.782 1024.09 655.782C1005.82 655.782 992.461 646.407 992.308 625.044H977.26C977.106 655.014 998.757 669 1023.63 669Z" fill="white"/>
<path d="M1090.09 667.463H1105.14V559.879H1090.09V667.463Z" fill="white"/>
<path d="M1181.12 669C1199.08 669 1213.36 661.776 1220.27 648.866H1220.58L1223.81 667.463H1236.7L1232.1 638.876V610.29H1162.23V624.122H1217.66C1216.74 644.409 1201.39 655.168 1181.12 655.168C1156.55 655.168 1140.43 638.262 1140.43 613.671C1140.43 589.08 1156.55 572.174 1181.12 572.174C1198.93 572.174 1211.83 581.703 1215.36 597.533H1230.87C1225.96 572.174 1206.61 558.342 1181.12 558.342C1148.57 558.342 1125.07 581.088 1125.07 613.671C1125.07 646.254 1148.57 669 1181.12 669Z" fill="white"/>
<path d="M1255.94 667.463H1270.37V577.399H1270.68L1330.1 667.463H1351.14V559.879H1336.71V649.942H1336.4L1276.97 559.879H1255.94V667.463Z" fill="white"/>
</svg>
