<svg width="780" height="378" viewBox="0 0 780 378" fill="none" xmlns="http://www.w3.org/2000/svg">
<path d="M21.5126 62.0891H30.0826V8.74494H51.5952V0.874493H0V8.74494H21.5126V62.0891Z" fill="black"/>
<path d="M45.5181 62.0891H54.1756L60.6468 46.9603H91.9537L98.3375 62.0891H107.607L80.9351 0.874493H72.1902L45.5181 62.0891ZM63.8825 39.4397L76.3003 10.319H76.4752L88.8056 39.4397H63.8825Z" fill="black"/>
<path d="M115.519 62.0891H160.38V54.2186H124.089V0.874493H115.519V62.0891Z" fill="black"/>
<path d="M168.21 62.0891H176.78V41.3636L187.187 31.5692L212.897 62.0891H224.178L193.308 25.7976L219.805 0.874493H208L176.955 30.9571H176.78V0.874493H168.21V62.0891Z" fill="black"/>
<path d="M251.968 62.9636C265.173 62.9636 277.503 57.7166 277.503 44.5118C277.503 18.4518 236.664 34.8923 236.664 18.0146C236.664 10.6688 244.272 7.52065 251.618 7.52065C261.762 7.52065 268.058 13.6421 268.058 23.6988H276.628C276.366 8.91984 266.572 0 251.53 0C239.113 0 228.181 6.12146 228.181 18.3644C228.181 44.5118 269.02 27.9838 269.02 44.8615C269.02 52.6445 260.013 55.4429 252.23 55.4429C241.824 55.4429 234.215 50.1085 234.128 37.953H225.558C225.471 55.0057 237.801 62.9636 251.968 62.9636Z" fill="black"/>
<path d="M35.417 168.176C51.3328 168.176 62.9636 157.595 65.3247 142.816H56.4923C54.3061 153.397 46.2607 160.306 35.417 160.306C21.4251 160.306 12.2429 150.686 12.2429 136.694C12.2429 122.702 21.4251 113.083 35.417 113.083C45.9109 113.083 54.8308 120.341 56.4923 130.573H65.2373C63.3134 115.969 51.0705 105.213 35.417 105.213C16.8777 105.213 3.49798 118.155 3.49798 136.694C3.49798 155.234 16.8777 168.176 35.417 168.176Z" fill="black"/>
<path d="M105.258 168.176C123.185 168.176 136.477 154.621 136.477 136.694C136.477 118.767 123.185 105.213 105.258 105.213C87.3305 105.213 74.0382 118.767 74.0382 136.694C74.0382 154.621 87.3305 168.176 105.258 168.176ZM105.258 160.306C91.8779 160.306 82.7832 150.074 82.7832 136.694C82.7832 123.315 91.8779 113.083 105.258 113.083C118.637 113.083 127.732 123.315 127.732 136.694C127.732 150.074 118.637 160.306 105.258 160.306Z" fill="black"/>
<path d="M147.885 167.302H156.105V116.056H156.28L176.743 167.302H185.488L205.952 116.056H206.126V167.302H214.522V106.087H201.229L181.378 156.196H181.203L161.352 106.087H147.885V167.302Z" fill="black"/>
<path d="M228.503 167.302H237.073V145.439H254.912C267.942 145.439 277.474 138.531 277.474 125.501C277.474 112.471 268.205 106.087 255.175 106.087H228.503V167.302ZM237.073 137.569V113.958H254.912C262.783 113.958 268.729 117.63 268.729 125.501C268.729 133.371 262.52 137.569 254.65 137.569H237.073Z" fill="black"/>
<path d="M313.738 168.176C329.567 168.176 339.973 158.119 339.973 142.291V106.087H331.403V142.029C331.403 153.31 325.019 160.306 313.738 160.306C302.457 160.306 296.074 153.31 296.074 142.029V106.087H287.504V142.291C287.504 158.119 297.91 168.176 313.738 168.176Z" fill="black"/>
<path d="M368.919 167.302H377.489V113.958H399.002V106.087H347.406V113.958H368.919V167.302Z" fill="black"/>
<path d="M392.925 167.302H401.582L408.053 152.173H439.36L445.744 167.302H455.014L428.341 106.087H419.597L392.925 167.302ZM411.289 144.652L423.707 115.532H423.882L436.212 144.652H411.289Z" fill="black"/>
<path d="M470.459 167.302H479.029V113.958H500.542V106.087H448.947V113.958H470.459V167.302Z" fill="black"/>
<path d="M508.443 167.302H517.013V106.087H508.443V167.302Z" fill="black"/>
<path d="M559.585 168.176C577.512 168.176 590.804 154.621 590.804 136.694C590.804 118.767 577.512 105.213 559.585 105.213C541.657 105.213 528.365 118.767 528.365 136.694C528.365 154.621 541.657 168.176 559.585 168.176ZM559.585 160.306C546.205 160.306 537.11 150.074 537.11 136.694C537.11 123.315 546.205 113.083 559.585 113.083C572.964 113.083 582.059 123.315 582.059 136.694C582.059 150.074 572.964 160.306 559.585 160.306Z" fill="black"/>
<path d="M602.212 167.302H610.432V116.056H610.607L644.45 167.302H656.431V106.087H648.21V157.332H648.036L614.193 106.087H602.212V167.302Z" fill="black"/>
<path d="M664.325 167.302H672.983L679.454 152.173H710.761L717.145 167.302H726.414L699.742 106.087H690.997L664.325 167.302ZM682.689 144.652L695.107 115.532H695.282L707.613 144.652H682.689Z" fill="black"/>
<path d="M734.326 167.302H779.187V159.431H742.896V106.087H734.326V167.302Z" fill="black"/>
<path d="M493.177 271.913H501.397V220.667H501.572L522.035 271.913H530.78L551.243 220.667H551.418V271.913H559.813V210.698H546.521L526.67 260.807H526.495L506.644 210.698H493.177V271.913Z" fill="black"/>
<path d="M573.794 271.913H621.279V264.042H582.364V244.454H617.781V236.583H582.364V218.569H620.405V210.698H573.794V271.913Z" fill="black"/>
<path d="M631.781 271.913H653.993C674.281 271.913 688.36 261.244 688.36 240.956C688.36 220.667 675.243 210.698 654.955 210.698H631.781V271.913ZM640.351 264.042V218.569H653.556C669.909 218.569 679.616 224.603 679.616 240.956C679.616 257.309 669.122 264.042 652.769 264.042H640.351Z" fill="black"/>
<path d="M699.759 271.913H708.329V210.698H699.759V271.913Z" fill="black"/>
<path d="M716.183 271.913H724.841L731.312 256.784H762.619L769.003 271.913H778.272L751.6 210.698H742.855L716.183 271.913ZM734.547 249.263L746.965 220.143H747.14L759.471 249.263H734.547Z" fill="black"/>
<path d="M435.02 377.125H457.232C477.52 377.125 491.599 366.457 491.599 346.168C491.599 325.88 478.482 315.911 458.194 315.911H435.02V377.125ZM443.59 369.255V323.781H456.794C473.148 323.781 482.854 329.815 482.854 346.168C482.854 362.521 472.36 369.255 456.007 369.255H443.59Z" fill="black"/>
<path d="M502.998 377.125H550.483V369.255H511.568V349.666H546.985V341.796H511.568V323.781H549.608V315.911H502.998V377.125Z" fill="black"/>
<path d="M585.645 378C598.85 378 611.18 372.753 611.18 359.548C611.18 333.488 570.341 349.929 570.341 333.051C570.341 325.705 577.949 322.557 585.295 322.557C595.439 322.557 601.736 328.678 601.736 338.735H610.306C610.043 323.956 600.249 315.036 585.208 315.036C572.79 315.036 561.859 321.158 561.859 333.401C561.859 359.548 602.698 343.02 602.698 359.898C602.698 367.681 593.69 370.479 585.907 370.479C575.501 370.479 567.893 365.145 567.805 352.989H559.235C559.148 370.042 571.478 378 585.645 378Z" fill="black"/>
<path d="M623.497 377.125H632.067V315.911H623.497V377.125Z" fill="black"/>
<path d="M675.338 378C685.57 378 693.702 373.89 697.638 366.544H697.813L699.649 377.125H706.995L704.371 360.86V344.594H664.582V352.465H696.151C695.626 364.008 686.881 370.129 675.338 370.129C661.346 370.129 652.164 360.51 652.164 346.518C652.164 332.526 661.346 322.907 675.338 322.907C685.482 322.907 692.828 328.329 694.839 337.336H703.672C700.873 322.907 689.855 315.036 675.338 315.036C656.799 315.036 643.419 327.979 643.419 346.518C643.419 365.057 656.799 378 675.338 378Z" fill="black"/>
<path d="M717.949 377.125H726.169V325.88H726.344L760.187 377.125H772.168V315.911H763.948V367.156H763.773L729.93 315.911H717.949V377.125Z" fill="black"/>
</svg>
