<svg width="701" height="124" viewBox="0 0 701 124" fill="none" xmlns="http://www.w3.org/2000/svg">
<path d="M90.8101 46.6401C102.458 46.6401 110.97 38.8961 112.698 28.0801H106.234C104.634 35.8241 98.7461 40.8801 90.8101 40.8801C80.5701 40.8801 73.8501 33.8401 73.8501 23.6001C73.8501 13.3601 80.5701 6.32006 90.8101 6.32006C98.4901 6.32006 105.018 11.6321 106.234 19.1201H112.634C111.226 8.43206 102.266 0.560059 90.8101 0.560059C77.2421 0.560059 67.4501 10.0321 67.4501 23.6001C67.4501 37.1681 77.2421 46.6401 90.8101 46.6401Z" fill="black"/>
<path d="M141.923 46.6401C155.043 46.6401 164.771 36.7201 164.771 23.6001C164.771 10.4801 155.043 0.560059 141.923 0.560059C128.803 0.560059 119.075 10.4801 119.075 23.6001C119.075 36.7201 128.803 46.6401 141.923 46.6401ZM141.923 40.8801C132.131 40.8801 125.475 33.3921 125.475 23.6001C125.475 13.8081 132.131 6.32006 141.923 6.32006C151.715 6.32006 158.371 13.8081 158.371 23.6001C158.371 33.3921 151.715 40.8801 141.923 40.8801Z" fill="black"/>
<path d="M173.12 46.0001H179.136V8.49606H179.264L194.24 46.0001H200.64L215.616 8.49606H215.744V46.0001H221.888V1.20006H212.16L197.632 37.8721H197.504L182.976 1.20006H173.12V46.0001Z" fill="black"/>
<path d="M232.12 46.0001H238.392V30.0001H251.448C260.984 30.0001 267.96 24.9441 267.96 15.4081C267.96 5.87206 261.176 1.20006 251.64 1.20006H232.12V46.0001ZM238.392 24.2401V6.96006H251.448C257.208 6.96006 261.56 9.64806 261.56 15.4081C261.56 21.1681 257.016 24.2401 251.256 24.2401H238.392Z" fill="black"/>
<path d="M294.5 46.6401C306.084 46.6401 313.7 39.2801 313.7 27.6961V1.20006H307.428V27.5041C307.428 35.7601 302.756 40.8801 294.5 40.8801C286.244 40.8801 281.572 35.7601 281.572 27.5041V1.20006H275.3V27.6961C275.3 39.2801 282.916 46.6401 294.5 46.6401Z" fill="black"/>
<path d="M334.884 46.0001H341.156V6.96006H356.9V1.20006H319.14V6.96006H334.884V46.0001Z" fill="black"/>
<path d="M352.453 46.0001H358.789L363.525 34.9281H386.437L391.109 46.0001H397.893L378.373 1.20006H371.973L352.453 46.0001ZM365.893 29.4241L374.981 8.11206H375.109L384.133 29.4241H365.893Z" fill="black"/>
<path d="M409.197 46.0001H415.469V6.96006H431.213V1.20006H393.453V6.96006H409.197V46.0001Z" fill="black"/>
<path d="M436.995 46.0001H443.267V1.20006H436.995V46.0001Z" fill="black"/>
<path d="M474.423 46.6401C487.543 46.6401 497.271 36.7201 497.271 23.6001C497.271 10.4801 487.543 0.560059 474.423 0.560059C461.303 0.560059 451.575 10.4801 451.575 23.6001C451.575 36.7201 461.303 46.6401 474.423 46.6401ZM474.423 40.8801C464.631 40.8801 457.975 33.3921 457.975 23.6001C457.975 13.8081 464.631 6.32006 474.423 6.32006C484.215 6.32006 490.871 13.8081 490.871 23.6001C490.871 33.3921 484.215 40.8801 474.423 40.8801Z" fill="black"/>
<path d="M505.62 46.0001H511.636V8.49606H511.764L536.532 46.0001H545.3V1.20006H539.284V38.7041H539.156L514.388 1.20006H505.62V46.0001Z" fill="black"/>
<path d="M551.078 46.0001H557.414L562.15 34.9281H585.062L589.734 46.0001H596.518L576.998 1.20006H570.598L551.078 46.0001ZM564.518 29.4241L573.606 8.11206H573.734L582.758 29.4241H564.518Z" fill="black"/>
<path d="M602.308 46.0001H635.14V40.2401H608.58V1.20006H602.308V46.0001Z" fill="black"/>
<path d="M0.838867 123H6.85487V85.4961H6.98287L21.9589 123H28.3589L43.3349 85.4961H43.4629V123H49.6069V78.2001H39.8789L25.3509 114.872H25.2229L10.6949 78.2001H0.838867V123Z" fill="black"/>
<path d="M59.8389 123H94.5909V117.24H66.1109V102.904H92.0309V97.1441H66.1109V83.9601H93.9509V78.2001H59.8389V123Z" fill="black"/>
<path d="M102.276 123H118.532C133.38 123 143.684 115.192 143.684 100.344C143.684 85.4961 134.084 78.2001 119.236 78.2001H102.276V123ZM108.548 117.24V83.9601H118.212C130.18 83.9601 137.284 88.3761 137.284 100.344C137.284 112.312 129.604 117.24 117.636 117.24H108.548Z" fill="black"/>
<path d="M152.026 123H158.298V78.2001H152.026V123Z" fill="black"/>
<path d="M164.046 123H170.382L175.118 111.928H198.03L202.702 123H209.486L189.966 78.2001H183.566L164.046 123ZM177.486 106.424L186.574 85.1121H186.702L195.726 106.424H177.486Z" fill="black"/>
<path d="M230.026 123H246.282C261.13 123 271.434 115.192 271.434 100.344C271.434 85.4961 261.834 78.2001 246.986 78.2001H230.026V123ZM236.298 117.24V83.9601H245.962C257.93 83.9601 265.034 88.3761 265.034 100.344C265.034 112.312 257.354 117.24 245.386 117.24H236.298Z" fill="black"/>
<path d="M279.776 123H314.528V117.24H286.048V102.904H311.968V97.1441H286.048V83.9601H313.888V78.2001H279.776V123Z" fill="black"/>
<path d="M340.262 123.64C349.926 123.64 358.95 119.8 358.95 110.136C358.95 91.0641 329.062 103.096 329.062 90.7441C329.062 85.3681 334.63 83.0641 340.006 83.0641C347.43 83.0641 352.038 87.5441 352.038 94.9041H358.31C358.118 84.0881 350.95 77.5601 339.942 77.5601C330.854 77.5601 322.854 82.0401 322.854 91.0001C322.854 110.136 352.742 98.0401 352.742 110.392C352.742 116.088 346.15 118.136 340.454 118.136C332.838 118.136 327.27 114.232 327.206 105.336H320.934C320.87 117.816 329.894 123.64 340.262 123.64Z" fill="black"/>
<path d="M367.964 123H374.236V78.2001H367.964V123Z" fill="black"/>
<path d="M405.904 123.64C413.392 123.64 419.344 120.632 422.224 115.256H422.352L423.696 123H429.072L427.152 111.096V99.1921H398.032V104.952H421.136C420.752 113.4 414.352 117.88 405.904 117.88C395.664 117.88 388.944 110.84 388.944 100.6C388.944 90.3601 395.664 83.3201 405.904 83.3201C413.328 83.3201 418.704 87.2881 420.176 93.8801H426.64C424.592 83.3201 416.528 77.5601 405.904 77.5601C392.336 77.5601 382.544 87.0321 382.544 100.6C382.544 114.168 392.336 123.64 405.904 123.64Z" fill="black"/>
<path d="M437.089 123H443.105V85.4961H443.233L468.001 123H476.769V78.2001H470.753V115.704H470.625L445.857 78.2001H437.089V123Z" fill="black"/>
<path d="M513.04 123H519.312V83.9601H535.056V78.2001H497.296V83.9601H513.04V123Z" fill="black"/>
<path d="M530.609 123H536.945L541.681 111.928H564.593L569.265 123H576.049L556.529 78.2001H550.129L530.609 123ZM544.049 106.424L553.137 85.1121H553.265L562.289 106.424H544.049Z" fill="black"/>
<path d="M581.839 123H614.671V117.24H588.111V78.2001H581.839V123Z" fill="black"/>
<path d="M620.401 123H626.673V107.832L634.289 100.664L653.105 123H661.361L638.769 96.4401L658.161 78.2001H649.521L626.801 100.216H626.673V78.2001H620.401V123Z" fill="black"/>
<path d="M681.699 123.64C691.363 123.64 700.387 119.8 700.387 110.136C700.387 91.0641 670.499 103.096 670.499 90.7441C670.499 85.3681 676.067 83.0641 681.443 83.0641C688.867 83.0641 693.475 87.5441 693.475 94.9041H699.747C699.555 84.0881 692.387 77.5601 681.379 77.5601C672.291 77.5601 664.291 82.0401 664.291 91.0001C664.291 110.136 694.179 98.0401 694.179 110.392C694.179 116.088 687.587 118.136 681.891 118.136C674.275 118.136 668.707 114.232 668.643 105.336H662.371C662.307 117.816 671.331 123.64 681.699 123.64Z" fill="black"/>
</svg>
