<svg width="569" height="278" viewBox="0 0 569 278" fill="none" xmlns="http://www.w3.org/2000/svg">
<path d="M24.06 123.64C35.708 123.64 44.22 115.896 45.948 105.08H39.484C37.884 112.824 31.996 117.88 24.06 117.88C13.82 117.88 7.09995 110.84 7.09995 100.6C7.09995 90.3601 13.82 83.3201 24.06 83.3201C31.74 83.3201 38.268 88.6321 39.484 96.1201H45.884C44.476 85.4321 35.516 77.5601 24.06 77.5601C10.492 77.5601 0.699951 87.0321 0.699951 100.6C0.699951 114.168 10.492 123.64 24.06 123.64Z" fill="black"/>
<path d="M75.173 123.64C88.293 123.64 98.021 113.72 98.021 100.6C98.021 87.4801 88.293 77.5601 75.173 77.5601C62.053 77.5601 52.325 87.4801 52.325 100.6C52.325 113.72 62.053 123.64 75.173 123.64ZM75.173 117.88C65.381 117.88 58.7249 110.392 58.7249 100.6C58.7249 90.8081 65.381 83.3201 75.173 83.3201C84.965 83.3201 91.621 90.8081 91.621 100.6C91.621 110.392 84.965 117.88 75.173 117.88Z" fill="black"/>
<path d="M106.37 123H112.386V85.4961H112.514L127.49 123H133.89L148.866 85.4961H148.994V123H155.138V78.2001H145.41L130.882 114.872H130.754L116.226 78.2001H106.37V123Z" fill="black"/>
<path d="M165.37 123H171.642V107H184.698C194.234 107 201.21 101.944 201.21 92.4081C201.21 82.8721 194.426 78.2001 184.89 78.2001H165.37V123ZM171.642 101.24V83.9601H184.698C190.458 83.9601 194.81 86.6481 194.81 92.4081C194.81 98.1681 190.266 101.24 184.506 101.24H171.642Z" fill="black"/>
<path d="M227.75 123.64C239.334 123.64 246.95 116.28 246.95 104.696V78.2001H240.678V104.504C240.678 112.76 236.006 117.88 227.75 117.88C219.494 117.88 214.822 112.76 214.822 104.504V78.2001H208.55V104.696C208.55 116.28 216.166 123.64 227.75 123.64Z" fill="black"/>
<path d="M268.134 123H274.406V83.9601H290.15V78.2001H252.39V83.9601H268.134V123Z" fill="black"/>
<path d="M285.702 123H292.038L296.774 111.928H319.686L324.358 123H331.142L311.622 78.2001H305.222L285.702 123ZM299.142 106.424L308.23 85.1121H308.358L317.382 106.424H299.142Z" fill="black"/>
<path d="M342.446 123H348.718V83.9601H364.462V78.2001H326.702V83.9601H342.446V123Z" fill="black"/>
<path d="M370.245 123H376.517V78.2001H370.245V123Z" fill="black"/>
<path d="M407.673 123.64C420.793 123.64 430.521 113.72 430.521 100.6C430.521 87.4801 420.793 77.5601 407.673 77.5601C394.553 77.5601 384.825 87.4801 384.825 100.6C384.825 113.72 394.553 123.64 407.673 123.64ZM407.673 117.88C397.881 117.88 391.225 110.392 391.225 100.6C391.225 90.8081 397.881 83.3201 407.673 83.3201C417.465 83.3201 424.121 90.8081 424.121 100.6C424.121 110.392 417.465 117.88 407.673 117.88Z" fill="black"/>
<path d="M438.87 123H444.886V85.4961H445.014L469.782 123H478.55V78.2001H472.534V115.704H472.406L447.638 78.2001H438.87V123Z" fill="black"/>
<path d="M484.327 123H490.663L495.399 111.928H518.311L522.983 123H529.767L510.247 78.2001H503.847L484.327 123ZM497.767 106.424L506.855 85.1121H506.983L516.007 106.424H497.767Z" fill="black"/>
<path d="M535.557 123H568.389V117.24H541.829V78.2001H535.557V123Z" fill="black"/>
<path d="M359.682 200H365.698V162.496H365.826L380.802 200H387.202L402.178 162.496H402.306V200H408.45V155.2H398.722L384.194 191.872H384.066L369.538 155.2H359.682V200Z" fill="black"/>
<path d="M418.682 200H453.434V194.24H424.954V179.904H450.874V174.144H424.954V160.96H452.794V155.2H418.682V200Z" fill="black"/>
<path d="M461.12 200H477.376C492.224 200 502.528 192.192 502.528 177.344C502.528 162.496 492.928 155.2 478.08 155.2H461.12V200ZM467.392 194.24V160.96H477.056C489.024 160.96 496.128 165.376 496.128 177.344C496.128 189.312 488.448 194.24 476.48 194.24H467.392Z" fill="black"/>
<path d="M510.87 200H517.142V155.2H510.87V200Z" fill="black"/>
<path d="M522.89 200H529.226L533.962 188.928H556.874L561.546 200H568.33L548.81 155.2H542.41L522.89 200ZM536.33 183.424L545.418 162.112H545.546L554.57 183.424H536.33Z" fill="black"/>
<path d="M317.12 277H333.376C348.224 277 358.528 269.192 358.528 254.344C358.528 239.496 348.928 232.2 334.08 232.2H317.12V277ZM323.392 271.24V237.96H333.056C345.024 237.96 352.128 242.376 352.128 254.344C352.128 266.312 344.448 271.24 332.48 271.24H323.392Z" fill="black"/>
<path d="M366.87 277H401.622V271.24H373.142V256.904H399.062V251.144H373.142V237.96H400.982V232.2H366.87V277Z" fill="black"/>
<path d="M427.355 277.64C437.019 277.64 446.043 273.8 446.043 264.136C446.043 245.064 416.155 257.096 416.155 244.744C416.155 239.368 421.723 237.064 427.099 237.064C434.523 237.064 439.131 241.544 439.131 248.904H445.403C445.211 238.088 438.043 231.56 427.035 231.56C417.947 231.56 409.947 236.04 409.947 245C409.947 264.136 439.835 252.04 439.835 264.392C439.835 270.088 433.243 272.136 427.547 272.136C419.931 272.136 414.363 268.232 414.299 259.336H408.027C407.963 271.816 416.987 277.64 427.355 277.64Z" fill="black"/>
<path d="M455.057 277H461.329V232.2H455.057V277Z" fill="black"/>
<path d="M492.997 277.64C500.485 277.64 506.437 274.632 509.317 269.256H509.445L510.789 277H516.165L514.245 265.096V253.192H485.125V258.952H508.229C507.845 267.4 501.445 271.88 492.997 271.88C482.757 271.88 476.037 264.84 476.037 254.6C476.037 244.36 482.757 237.32 492.997 237.32C500.421 237.32 505.797 241.288 507.269 247.88H513.733C511.685 237.32 503.621 231.56 492.997 231.56C479.429 231.56 469.637 241.032 469.637 254.6C469.637 268.168 479.429 277.64 492.997 277.64Z" fill="black"/>
<path d="M524.182 277H530.198V239.496H530.326L555.094 277H563.862V232.2H557.846V269.704H557.718L532.95 232.2H524.182V277Z" fill="black"/>
<path d="M3.12012 46.0001H37.8721V40.2401H9.39212V25.9041H35.3121V20.1441H9.39212V6.96006H37.2321V1.20006H3.12012V46.0001Z" fill="black"/>
<path d="M60.5976 46.0001H66.9976L86.5176 1.20006H79.9896L64.0536 38.7681H63.9256L47.9896 1.20006H41.0776L60.5976 46.0001Z" fill="black"/>
<path d="M92.3076 46.0001H127.06V40.2401H98.5796V25.9041H124.5V20.1441H98.5796V6.96006H126.42V1.20006H92.3076V46.0001Z" fill="black"/>
<path d="M134.745 46.0001H140.761V8.49606H140.889L165.657 46.0001H174.425V1.20006H168.409V38.7041H168.281L143.513 1.20006H134.745V46.0001Z" fill="black"/>
<path d="M195.947 46.0001H202.219V6.96006H217.963V1.20006H180.203V6.96006H195.947V46.0001Z" fill="black"/>
<path d="M240.543 46.6401C250.207 46.6401 259.231 42.8001 259.231 33.1361C259.231 14.0641 229.343 26.0961 229.343 13.7441C229.343 8.36806 234.911 6.06406 240.287 6.06406C247.711 6.06406 252.319 10.5441 252.319 17.9041H258.591C258.399 7.08806 251.231 0.560059 240.223 0.560059C231.135 0.560059 223.135 5.04006 223.135 14.0001C223.135 33.1361 253.023 21.0401 253.023 33.3921C253.023 39.0881 246.431 41.1361 240.735 41.1361C233.119 41.1361 227.551 37.2321 227.487 28.3361H221.215C221.151 40.8161 230.175 46.6401 240.543 46.6401Z" fill="black"/>
</svg>
