<svg xmlns="http://www.w3.org/2000/svg" viewBox="0 0 278.15 134.09">
  <defs>
    <style>
      .a, .b {
        fill: #202721;
      }

      .b {
        fill-rule: evenodd;
      }
    </style>
  </defs>
  <g>
    <path class="a" d="M8.73,53.39l.5.39a24.19,24.19,0,0,0-.38,3.47c-.08,1.49-.12,3.36-.12,5.59V72q0,5.3.86,6.51c.56.81,1.67,1.22,3.3,1.22v.93c-1,0-2-.11-3.11-.24s-2.19-.31-3.33-.54c-1.29.25-2.45.45-3.5.57A26.38,26.38,0,0,1,0,80.69v-.93c1.66,0,2.77-.4,3.32-1.2s.84-3,.84-6.53V62.27q0-4.65-.62-5.8a2.41,2.41,0,0,0-2.35-1.16l-.31,0a2,2,0,0,1-.31,0v-.91l.22,0c1.15-.09,2-.13,2.51-.13l1.2,0c.53,0,1.18,0,2,.08a9.48,9.48,0,0,1,1.1-.56C7.94,53.67,8.33,53.53,8.73,53.39Z"/>
    <path class="a" d="M47.92,77.34h6.26c2.78,0,4.56-.23,5.32-.68a3.77,3.77,0,0,0,1.57-2.54l1.17.15a16.63,16.63,0,0,1-.52,2.08A11.5,11.5,0,0,1,61,78.11a4,4,0,0,1,.4.82,2.19,2.19,0,0,1,.12.7,1,1,0,0,1-.44.83,2.31,2.31,0,0,1-1.25.29c-.42,0-1.61,0-3.57-.11s-3.68-.11-5.2-.11-3,0-4.28,0-2.59.06-3.79.11V79.39q7.22-5.61,10.3-10.06a15.8,15.8,0,0,0,3.08-9.09A7.34,7.34,0,0,0,55.25,56a3.33,3.33,0,0,0-2.88-1.6,3.29,3.29,0,0,0-2.53,1.13,4,4,0,0,0-1,2.8A5.39,5.39,0,0,0,49,59.78a5.29,5.29,0,0,0,.54,1.28,5.09,5.09,0,0,1-1.27.68,4,4,0,0,1-1.33.22,2.41,2.41,0,0,1-1.83-.7,2.61,2.61,0,0,1-.68-1.88,5.2,5.2,0,0,1,2.45-4.25,10,10,0,0,1,6-1.79,8.77,8.77,0,0,1,6.05,2,6.73,6.73,0,0,1,2.32,5.29,11.53,11.53,0,0,1-2.89,7Q55.5,71.4,47.92,77.34Z"/>
    <path class="a" d="M216.49,81.29,216,80.1a16.58,16.58,0,0,0,7.75-4.87,16.08,16.08,0,0,0,3.66-8.3A7.89,7.89,0,0,1,224.73,69a8.24,8.24,0,0,1-3.41.68,7.35,7.35,0,0,1-5.49-2.2,7.65,7.65,0,0,1-2.16-5.6,8.49,8.49,0,0,1,2.77-6.47,9.64,9.64,0,0,1,6.86-2.61,8.61,8.61,0,0,1,6.87,3,12,12,0,0,1,2.58,8.08,15.65,15.65,0,0,1-4.4,11A22.36,22.36,0,0,1,216.49,81.29Zm6.73-13a3.85,3.85,0,0,0,3.32-2.05,9.76,9.76,0,0,0,1.3-5.31,9.1,9.1,0,0,0-1.25-5.09A3.82,3.82,0,0,0,223.26,54a3.71,3.71,0,0,0-3.27,1.9A9.38,9.38,0,0,0,218.78,61,10.17,10.17,0,0,0,220,66.31,3.67,3.67,0,0,0,223.22,68.29Z"/>
    <path class="a" d="M278.15,67a16,16,0,0,1-3,9.92,8.68,8.68,0,0,1-14.57,0,16.14,16.14,0,0,1-3-9.92,16.1,16.1,0,0,1,3-9.92,8.66,8.66,0,0,1,14.56,0A16,16,0,0,1,278.15,67Zm-10.27-12.8q-2.43,0-3.61,3.2c-.8,2.13-1.19,5.33-1.19,9.6s.39,7.47,1.19,9.58,2,3.17,3.61,3.17,2.81-1.06,3.62-3.19,1.21-5.31,1.21-9.56-.41-7.46-1.21-9.59S269.49,54.24,267.88,54.24Z"/>
    <g>
      <path class="b" d="M138.81,0c5.67,1.48,11.28,4.56,16.24,7.63A77.13,77.13,0,0,1,168.3,17.9,66,66,0,0,1,185.25,45c7.17,22.41,2.91,48.81-12.69,66.7a78,78,0,0,1-29.66,21c-1.13.45-2.79,1.46-4,1.47-.92,0-2.35-.85-3.24-1.21a82.06,82.06,0,0,1-8.77-4.21,84.06,84.06,0,0,1-14.3-9.95A68.77,68.77,0,0,1,89.91,54.83c4.37-26,24.68-46,48.9-54.83m-.61,1c-21,7.43-39.32,24.7-45.73,46.23-6.59,22.13-1.58,47,13.86,64.21a81.15,81.15,0,0,0,29,20.49c1,.4,2.41,1.29,3.47,1.31a8.82,8.82,0,0,0,2.84-.91,72.07,72.07,0,0,0,8.2-3.73,79.45,79.45,0,0,0,14.87-10.09c18.29-15.77,26-39.82,22.19-63.46a65.26,65.26,0,0,0-16-33.49A73.63,73.63,0,0,0,156.59,9.41a86.4,86.4,0,0,0-8.26-4.73c-1.5-.75-3-1.47-4.57-2.12S139.77.47,138.2,1"/>
      <path class="b" d="M138.85,1.34c1.09-.14,2.87.94,3.84,1.32,1.33.54,2.64,1.13,3.94,1.75a80.74,80.74,0,0,1,7.68,4.23,74.72,74.72,0,0,1,13.13,10.3,64.1,64.1,0,0,1,16.85,28.45c6.11,21.89,1.64,46.55-13.42,63.79a74.84,74.84,0,0,1-28.69,20.09,11.91,11.91,0,0,1-3,1.11,9.15,9.15,0,0,1-3.26-1.08,77.82,77.82,0,0,1-8.61-4.2,81.74,81.74,0,0,1-14.36-10.29C95.77,101.45,88.08,78.86,91.49,56.12A65,65,0,0,1,107,22.92a75.93,75.93,0,0,1,14.57-12.68,84.67,84.67,0,0,1,8.44-5c2.7-1.39,5.88-3.26,8.88-3.86m-.74,1.21c-.37.84,1,1.38,1.24.51a.67.67,0,0,0-1.24-.51M136,3.41a.72.72,0,0,0,1.38,0c.18-1-1.56-1.06-1.38,0m4-.39a.71.71,0,0,0,1.13.78c.76-.72-.68-1.77-1.13-.78m1.87,1.06a.72.72,0,0,0,1.31.37c.58-.86-1.3-1.53-1.31-.37m-8,0c0,.86,1.47.89,1.36-.09a.69.69,0,0,0-1.36.09m3.75.12C116,11.07,99.45,30.61,94.33,52.48,89.25,74.16,97,97.62,112.25,113.32a67,67,0,0,0,12.68,10,65.26,65.26,0,0,0,7.45,3.92c2.18,1,5.39,3,7.77,2.35,9.95-2.78,19.65-9.66,26.71-17,14.34-15,21.23-38,16.75-58.38C181,42.47,175.2,30.63,166.84,22a76.85,76.85,0,0,0-13.52-11.49,58.82,58.82,0,0,0-7.51-4c-2.37-1.07-5.57-3.09-8.14-2.28m7,1.38a.66.66,0,0,0,0-1.32.66.66,0,1,0,0,1.32M132,4.82a.71.71,0,0,0,1.19.71c.68-.8-.84-1.61-1.19-.71m14,1a.7.7,0,0,0,1.36.16c.28-1-1.38-1.21-1.36-.16m-15.82.31c.26.66,1.45.46,1.32-.31-.16-1-1.68-.61-1.32.31m-1.93.67a.71.71,0,0,0,1.35.25c.39-.93-1.35-1.34-1.35-.25m20.52.69a.66.66,0,0,0,.12-1.32.66.66,0,1,0-.12,1.32m1.3.48a.68.68,0,0,0,1.35-.17.68.68,0,1,0-1.35.17m-23.62-.23a.7.7,0,0,0,1.3.4c.52-.87-1.18-1.43-1.3-.4m-1.15,1.79a.69.69,0,0,0,.23-1.34c-1-.3-1.27,1.31-.23,1.34m26.93-.13a.68.68,0,0,0,1.06-.85c-.5-.76-1.75.16-1.06.85m-28.63,1.24c1.2,0,.53-1.91-.42-1.25a.7.7,0,0,0,.42,1.25m31,.12a.67.67,0,0,0,.05-1.33.67.67,0,1,0-.05,1.33m1,.29a.68.68,0,0,0,1.33.31c.19-.84-1.17-1.12-1.33-.31m-34.6.34c.13.72,1.22.65,1.38,0,.26-1-1.57-1.12-1.38,0m-1.74.82a.7.7,0,0,0,1.3.45c.46-.88-1.13-1.43-1.3-.45m38.82,1a.69.69,0,0,0,.22-1.33c-1-.32-1.27,1.33-.22,1.33m-39.68,1.09a.67.67,0,0,0,0-1.33.67.67,0,1,0,0,1.33m40.91-.9c-.59.62.43,1.6,1,1s-.43-1.59-1-1m-43.21,1.15c-.59.62.43,1.58,1,1s-.41-1.63-1-1M160.9,15c-.39.8.93,1.39,1.25.56s-.89-1.32-1.25-.56m-46.36.8c-.62.61.39,1.62,1,1s-.4-1.58-1-1m47.93.63c-.31.77.69,1.21,1.21.69.67-.67-.83-1.62-1.21-.69m-49.11,1.84c.77.3,1.35-.82.62-1.21s-1.5.86-.62,1.21m50.68.15a.74.74,0,0,0,1.34,0c.44-1-1.7-1.23-1.34,0m-52.48,0c-.51.59.3,1.38.93,1,.85-.46-.25-1.82-.93-1m54.05,1.11a.73.73,0,0,0,1.27.57c.66-.9-1.09-1.61-1.27-.57m-55.51.69a.68.68,0,0,0,1.35,0c.07-.87-1.38-1-1.35,0m57.06,1.13a.7.7,0,0,0,1.36.15c.29-1-1.42-1.17-1.36-.15m-58.51.22a.7.7,0,0,0,1.39.05c.06-.88-1.4-1-1.39-.05m61,1.82c.81-.31.24-1.7-.58-1.21a.67.67,0,0,0,.58,1.21m-62.09-.51a.69.69,0,0,0,1.35.24c.25-.92-1.29-1.21-1.35-.24m62.53,1.47a.7.7,0,0,0,1.35.22c.36-1-1.36-1.27-1.35-.22m-63.12.72a.67.67,0,0,0,0-1.34.67.67,0,1,0,0,1.34M105,26a.7.7,0,0,0,1.36.15c.27-1-1.4-1.18-1.36-.15m66.71-.29c-.62.53.21,1.61.88,1s-.15-1.68-.88-1M104,28.08a.72.72,0,0,0,1.11-.82c-.37-.91-2,.1-1.11.82m68.55-.42c-.1.86,1.33,1.06,1.4.18s-1.3-1-1.4-.18m-69.81,1.51a.69.69,0,0,0,1.35-.16.69.69,0,1,0-1.35.16m71,.38a.72.72,0,0,0,1.39.06c.26-1-1.52-1.14-1.39-.06m-72.07,1.23a.72.72,0,0,0,1.31.38c.62-.86-1.29-1.55-1.31-.38m73.16.51c.11.85,1.56.67,1.37-.17s-1.48-.76-1.37.17m-74.19,1.34c.19.92,1.71.44,1.33-.43a.71.71,0,0,0-1.33.43m75.39.56a.69.69,0,0,0,1.31-.39c-.18-.87-1.67-.52-1.31.39m-76,1.49a.69.69,0,0,0,.67-1.19c-.77-.46-1.54.8-.67,1.19m77.58.86a.69.69,0,0,0,.24-1.33c-1-.32-1.28,1.32-.24,1.33m-79,.59a.7.7,0,0,0,1.38-.27.7.7,0,0,0-1.38.27m79.34.5a.71.71,0,0,0,1.28.51c.6-.84-1.09-1.54-1.28-.51m-80.2,1a.7.7,0,0,0,1.28.54c.46-.83-1-1.44-1.28-.54m81.25.44c-.54.6.32,1.46,1,1s-.31-1.71-1-1M96.76,39.88c.1.73,1.19.71,1.39.06.29-1-1.53-1.17-1.39-.06m82.79.63c.21.71,1.46.5,1.33-.29s-1.61-.63-1.33.29M96.66,42.44c.94-.06.76-1.59-.19-1.35a.69.69,0,0,0,.19,1.35m83.66-.4a.7.7,0,0,0,1.36.17c.27-1-1.37-1.19-1.36-.17M95.44,44.09c.6.6,1.67-.31,1-1s-1.6.32-1,1M180.93,44a.71.71,0,0,0,1.35.2c.41-.93-1.41-1.32-1.35-.2m-86,2.1A.71.71,0,0,0,95.73,45c-.74-.75-1.79.73-.79,1.13m87.46.39c.93,0,.79-1.57-.19-1.34a.68.68,0,0,0,.19,1.34M94.42,48c.76.35,1.38-.77.67-1.19s-1.54.79-.67,1.19m87.94.1c.53.62,1.66-.17,1-.87s-1.63.19-1,.87M93.52,49.44c.33.72,1.56.31,1.29-.49s-1.71-.41-1.29.49m89.3.33a.73.73,0,0,0,1.37,0c.3-1-1.59-1.18-1.37,0M93.89,51.83c.83-.33.23-1.73-.6-1.21a.68.68,0,0,0,.6,1.21m89.49-.07a.73.73,0,0,0,1.39,0c.18-1-1.58-1.07-1.39,0M92.43,53.48c.18.92,1.7.44,1.32-.43a.7.7,0,0,0-1.32.43m91.5.09a.68.68,0,0,0,1.36-.12.68.68,0,0,0-1.36.12M92.13,55c-.17.91,1.31,1.16,1.39.25s-1.23-1-1.39-.25m92.09.63a.71.71,0,0,0,1.4,0c.08-.89-1.44-1-1.4,0M91.84,57.29a.69.69,0,0,0,1.33-.3c-.12-.92-1.63-.66-1.33.3m92.65.3a.73.73,0,0,0,1.3.37c.62-.87-1.3-1.56-1.3-.37m-93,1.21c-.19,1,1.31,1.18,1.35.23,0-.75-1.17-1.06-1.35-.23m93.33.69a.69.69,0,0,0,1.27.52c.33-.79-1-1.33-1.27-.52M92.15,61.61a.68.68,0,1,0-.23-1.34.68.68,0,0,0,.23,1.34m92.83.15a.7.7,0,0,0,1.24.56c.68-.82-1.05-1.59-1.24-.56M91.65,63.52c.82.25,1.31-1,.55-1.28s-1.45,1-.55,1.28m93.41.59c.16.79,1.55.58,1.34-.29a.69.69,0,0,0-1.34.29M91.23,65c.17.87,1.59.52,1.32-.37a.69.69,0,0,0-1.32.37m94,.9c-.55.72.68,1.56,1.14.81s-.62-1.49-1.14-.81m-94,.69c-.57.73.7,1.57,1.16.7a.68.68,0,0,0-1.16-.7m94.56,2.68a.67.67,0,0,0,0-1.33.67.67,0,1,0,0,1.33m-94.6-.36a.68.68,0,0,0,1.34.13c.22-.89-1.35-1.1-1.34-.13m93.85,1.49a.69.69,0,0,0,1.26.56c.31-.77-.9-1.35-1.26-.56m-93,1.13c1,0,.77-1.6-.21-1.34a.68.68,0,0,0,.21,1.34m92.78,1c-.4.81.95,1.39,1.26.56s-.89-1.33-1.26-.56m-93.3.84c.33.73,1.65.29,1.22-.56s-1.59-.26-1.22.56m93.07,1.44a.7.7,0,0,0,1.27.52c.6-.85-1.09-1.56-1.27-.52m-92.9,0c-.22,1,1.45,1.13,1.37.12-.06-.72-1.23-.84-1.37-.12m92.65,2.31a.69.69,0,0,0,1.35.14c.28-1-1.38-1.18-1.35-.14m-91.63.67A.7.7,0,0,0,93,76.41c-1-.31-1.27,1.34-.23,1.34m91.33,1.49a.71.71,0,0,0,1.36-.23c0-1-1.68-.8-1.36.23M92.3,79.05a.72.72,0,0,0,1.22.63c.79-.73-1-1.73-1.22-.63m91.52,1.57c-.64.68.64,1.65,1.09.86s-.48-1.5-1.09-.86m-91,.88a.7.7,0,0,0,1.3-.47c-.26-.87-1.71-.43-1.3.47m.44,1.78c.14.8,1.39.6,1.37-.17a.69.69,0,1,0-1.37.17m89.91,0A.68.68,0,0,0,184.5,83a.68.68,0,0,0-1.33.31m-89.45,2a.74.74,0,0,0,1.34,0c.44-1-1.7-1.27-1.34,0m89,0a.71.71,0,0,0,1.34.28c.42-1-1.37-1.37-1.34-.28M94.27,86.74c-.31,1,1.36,1.26,1.35.26,0-.71-1.13-1-1.35-.26m88,1c.54.61,1.64-.22,1.05-.89s-1.65.21-1.05.89M95,88.63c-.36.93,1.32,1.33,1.36.27A.71.71,0,0,0,95,88.63m87.42,1.17c.82-.32.21-1.72-.6-1.21a.68.68,0,0,0,.6,1.21m-86,1.85a.67.67,0,0,0,0-1.34.67.67,0,1,0,0,1.34m84.47-.91a.69.69,0,0,0,1,.92c.74-.64-.42-1.67-1-.92M96.45,92.48c-.42.7.64,1.39,1.14.83.65-.72-.62-1.63-1.14-.83m83.85,1.28c.77.3,1.35-.83.62-1.22s-1.5.87-.62,1.22M97.86,95.12a.67.67,0,0,0,0-1.33.67.67,0,1,0,0,1.33M179,94.87c-.16.91,1.3,1.17,1.4.25s-1.25-1.06-1.4-.25m-80.85.84c-.6.64.52,1.63,1,.89s-.42-1.56-1-.89m80,1.07a.7.7,0,0,0,1.3.45c.51-.87-1.13-1.44-1.3-.45M99,98.29c.59.58,1.68-.39.92-1s-1.58.35-.92,1m78.23.71a.69.69,0,0,0,1.35.17c.28-1-1.37-1.19-1.35-.17m-77.48.53a.74.74,0,0,0,1.32.35c.61-.89-1.34-1.53-1.32-.35m76.41,1.09c-.33.74.64,1.22,1.17.75.72-.64-.75-1.68-1.17-.75m-75.49.81c.35.77,1.7.26,1.22-.59-.4-.69-1.59-.22-1.22.59M175,102.92a.72.72,0,0,0,1.36-.27c0-1-1.74-.71-1.36.27m-72.78.5a.67.67,0,0,0,0-1.33.67.67,0,1,0,0,1.33m.31.91a.73.73,0,0,0,1.32.32c.61-.88-1.36-1.53-1.32-.32m71.42,0a.7.7,0,0,0,1.36.16c.28-1-1.37-1.18-1.36-.16m-69.66,2c1,0,.84-1.63-.15-1.34a.68.68,0,0,0,.15,1.34m68.55-.27a.73.73,0,0,0,1.37.08c.34-1-1.57-1.23-1.37-.08m-68.22,1.13a.7.7,0,0,0,1.36.17c.28-1-1.36-1.19-1.36-.17m67.55,1.15c1,0,.82-1.63-.16-1.34a.68.68,0,0,0,.16,1.34m-66.37-.06a.7.7,0,0,0,1.3.44c.49-.87-1.13-1.43-1.3-.44m64.53.88a.7.7,0,0,0,1.35.19c.29-1-1.36-1.21-1.35-.19m-63.31,1a.72.72,0,0,0,1.36-.27c0-1-1.75-.71-1.36.27m62.11.27c-.6.64.52,1.63,1.05.9s-.42-1.56-1.05-.9m-60.84.84a.71.71,0,0,0,1.28.47c.64-.84-1.13-1.57-1.28-.47M168,113.12c.94.29,1.32-1.19.37-1.29-.74-.07-1.22,1-.37,1.29m-57.76.3c1,.06.89-1.63-.1-1.34a.68.68,0,0,0,.1,1.34m55.91.5a.71.71,0,0,0,1.41,0c.06-.88-1.45-1-1.41,0m-55.26.36a.69.69,0,0,0,1.37-.18.69.69,0,0,0-1.37.18m53.69.92c-.29.94,1.29,1.28,1.33.29,0-.72-1.09-1.09-1.33-.29m-51.68.92a.69.69,0,0,0,.25-1.33c-1-.32-1.3,1.31-.25,1.33m.8.46c-.16.85,1.15,1.21,1.33.29s-1.17-1.09-1.33-.29m49.94.93a.67.67,0,0,0,0-1.34.67.67,0,1,0,0,1.34m-48.41.29c-.26.86,1.09,1.29,1.3.43s-1-1.28-1.3-.43M162.05,119c.92-.07.69-1.56-.23-1.34a.68.68,0,0,0,.23,1.34m-45-.16c-.67.59.38,1.66,1,1a.7.7,0,0,0-1-1m42.53.56a.69.69,0,0,0,1.3.43c.38-.87-1.09-1.35-1.3-.43m-40.37,1.93c1,.07.9-1.62-.1-1.34a.68.68,0,0,0,.1,1.34m39,.21c.86.33,1.42-1.07.4-1.26-.73-.14-1.16,1-.4,1.26m-37.64.9c.59.58,1.64-.27,1-.93s-1.63.29-1,.93m35.47-.29a.67.67,0,0,0,1.32.24c.22-.84-1.22-1.12-1.32-.24m-34,.92a.73.73,0,0,0,1.31.46c.61-.84-1.18-1.57-1.31-.46m32.59,1.07c.78.14,1.18-1,.44-1.31-.9-.35-1.37,1.14-.44,1.31m-30.79.17a.7.7,0,0,0,1.35.2c.3-1-1.34-1.2-1.35-.2m29,1a.69.69,0,0,0,.22-1.33c-1-.33-1.28,1.34-.22,1.33m-27.14-.23c-.31,1,1.37,1.26,1.35.27,0-.71-1.13-1-1.35-.27m25.06,1.43a.67.67,0,0,0,.14-1.34c-.87-.15-1,1.28-.14,1.34m-22.3.48c.83-.32.21-1.72-.6-1.21a.68.68,0,0,0,.6,1.21m20.56.57a.67.67,0,0,0,0-1.33.67.67,0,1,0,0,1.33m-19.63-.46a.71.71,0,0,0,1.19.65c.84-.7-1-1.79-1.19-.65m17,.5c-.18,1,1.31,1.15,1.35.23,0-.76-1.18-1.07-1.35-.23m-14.48,1.26c1,0,.89-1.59-.13-1.34a.68.68,0,0,0,.13,1.34m12.64-.09c.16.81,1.45.56,1.36-.23s-1.56-.74-1.36.23m-10.67,1c.8-.14.59-1.5-.25-1.34a.68.68,0,1,0,.25,1.34m8.89-.76a.68.68,0,0,0,1,.93c.76-.63-.42-1.68-1-.93m-7.63,1.14c.17.87,1.59.52,1.32-.37a.69.69,0,0,0-1.32.37m5.89.54c.6.58,1.68-.39.93-1s-1.59.34-.93,1m-4-.13a.7.7,0,0,0,1.35.2c.33-1-1.36-1.23-1.35-.2m1.76.25c-.11.92,1.36,1.05,1.35.1a.68.68,0,0,0-1.35-.1"/>
      <path class="b" d="M139,4.21a87.39,87.39,0,0,1,15.34,7.86c-2.4-.46-4.76-2.62-7-3.77-1.33-.67-2.7-1.29-4.07-1.89s-3.77-1.86-4.18-1.76a46.07,46.07,0,0,0-8.82,3.5c-1.52.75-3,1.58-4.46,2.43-.56.33-2.83,2.12-3.42,1.78-.21-.68,6.75-4,7.46-4.34A84.82,84.82,0,0,1,139,4.21"/>
      <path class="b" d="M141,5.78c.63,1.09-1.64.47-1.63.46-.7.62.17,1-1.16,1.74.1-.56.58-.79.24-1.32s-1.92-.23-2.42-.58c2.13-1.11,2.69-1.42,5-.3"/>
      <path class="b" d="M142.49,7.35c-.91.66-1.11.67-.85,1.81l.35.18c0,.33,0,.66,0,1s.1.57.52.86a3.07,3.07,0,0,0,1.3.14c1.18-.6-.06-.62.47-1.26a1.89,1.89,0,0,1,1.46-.72,1.45,1.45,0,0,1-.29,1.26,4,4,0,0,0,1.08.4,3.63,3.63,0,0,0,1.94.23,6.07,6.07,0,0,0-1.71-2.37c-1-.52-1.79.49-2.59-.29l-1,.92c0-.47,0-1,0-1.42a.67.67,0,0,0,.85-.78c1.25,0,3.07,1.25,4.15,1.82a40.87,40.87,0,0,1,4.57,3c-2.74,0-5.48,0-8.23,0h-3.67A7.36,7.36,0,0,1,139,11.9a2.9,2.9,0,0,0-.9-.33c.08-.42,1.51-.3,1.94-.74.1-.1.79-.82.43-1s-.46.57-.77.54.3-.82.23-1c-.3-1-.64-.44-1.28-.86.18-1.13,1.64.81,1.67.81.38,0,.13-1,.19-1.15.22-.21.43-.44.63-.67l-.36-.58s1.32.26,1.12.35c.81-.38.07-.4,0-.86a.17.17,0,0,1,.12-.17c.54,0,.56.75.46,1.11"/>
      <path class="b" d="M135.33,6.7c.34.66.11,2,.72,2.49s1.72-.27,2.19.11a.6.6,0,0,1-.39,1.09c-.64,0-.07-.54-.71-.79.07,0-1.29.05-1.15,0-.51.38-.42.68.08,1.21a2.21,2.21,0,0,0,1.37.35c.1.22-.25.25-.27.35-.2,1.18-.3.86-1.39.86h-4c-2.65,0-5.3,0-8,0,2.85-1.75,5.83-3.28,8.83-4.78.05.28-.57.57-.7.63.92,1,.56,3.6,2.25,1.64a3.76,3.76,0,0,1,.35-.83c.27-.07.33-.21.19-.43s-.19-.42-.56-.32c-.11-.83,0-2,1.11-1.55m-3.82,2.18c-.86.11-3.42.73-3.58,1.91s.89,1,1.51.48c.78-.64.3-1.69,1.16-.88.58.54.19,1.09,1.39,1.26.17,0,1.31,0,1.37-.17.24-.74-.39-.28-.55-.53-.07-.1-.5-.09-.65-.29-.29-.41.33-.39.25-.6s-.6-1.22-.9-1.18"/>
      <path class="b" d="M137.4,8.13l-.33.42c-.74-.51-.87-.58-.72-1.66.37,0,.74,1,1.05,1.24"/>
      <path class="b" d="M121,15.13c.5.38-.13,1.1.46,1.24-.18.33-.9.16-1.13,0a3.19,3.19,0,0,0,.67-1.21"/>
      <path class="b" d="M138.32,15.63a23.15,23.15,0,0,0,1.94,3.71A9.86,9.86,0,0,0,144.2,22c2.84,1.14,6.42,1.43,9,3.18,1,.69,2.34,2.12,2.32,3.43s-.37,1.06-1.68,1.06h-2.52c-1.55,0-3.15,0-4.64.14-.76.06-3.11-.3-3.55.21.22,1.09,2.73.84,3.42.77a20.23,20.23,0,0,1,4.34-.19,9.44,9.44,0,0,0,2.37,0c.86-.09,2.06-.3,2.26.51-2.76,0-6-.41-8.66.06-2.88.5,2,.57,2.78.57a37.79,37.79,0,0,1,4.12-.05c1.22.13.73,0,1.22.92,1,1.74,1,0,.45-.88,1.18-.18.85,5.53.87,6.27-1.12-4.49-5-6.94-9-3.94.19-2.51-6-3.46-7.08-5.68-.31-.63-.7-3.45-1.76-2.85-.83.48-1.05,2.92-1.78,3.75-1.1,1.24-2.75,1.65-4.2,2.34a6,6,0,0,0-1.9,1.23c-.9.95-.48.82-1.73.38a5.61,5.61,0,0,0-5.32,1.15c-1.54,1.4-1.39,3.35-1.8,5.21-.35,0-.19-5.33-.18-6l.37.15a.88.88,0,0,0,.42-.66c-.07-.58.23-.73.9-.43a.69.69,0,0,0,.69-.17c.07-.5-2.21-.17-2.38-.17-.45-1,1.4-.61,2-.61h3c.68,0,4.89.41,5.15-.07.44-.82-5.1-.18-6.09-.19a19.88,19.88,0,0,1-2.56,0c-.73-.09-2.2-.5-.84-.9,1.13-.34,2.66.32,3.72.43a8,8,0,0,0,2.23-.23c1.38-.18,2.93.07,4.3-.07.47-.05,3-.27,1.62-.73-.93-.31-2.65,0-3.6,0h-6.15c-1.43,0-3.13.66-2.68-1.26.78-3.4,5.71-4.18,8.42-5.15A16.18,16.18,0,0,0,135.35,21c2.46-2.09,2.37-3.17,3-5.32m4.13,12.62c-.12-.56-1.7-.57-1.65,0,0,0,.66,1.06.7,1.09.67.54,1.61.32,2.4.31,1.17,0,2.12-.25,3.25-.29,2-.06,4,0,6,0,1.48,0,2-.18,1.45-1.66-.75-2.07-2.34-2.91-4.38-3.53a52.29,52.29,0,0,1-6.53-2.11,12.33,12.33,0,0,1-5.29-4.65c-.9,3.19-4.38,5.11-8.12,6.44-2.74,1-8.21,1.72-8.1,5.66,3.12,0,6.25,0,9.37.07,1,0,2.71.37,3.67,0,1.16-.4.57-.71-.32-.89s-2.14.31-3,0-1-1.36-1.93-1.09-.82,1-1.82,1.13a29.6,29.6,0,0,1-5.24,0,5.05,5.05,0,0,1,3.64-3c1.14-.34,1.71.13,2.71.15.39.45.66.35.8-.29a3.51,3.51,0,0,1,.71-.73c2.7-2.44,6.07-2.8,7.67-6.5a11.17,11.17,0,0,0,4.25,3.88c.77.41,1.62.69,2.36,1.12.95.55.73.86,1.34,1.58.92,1.08,2.18-.2,3.59,0a5.06,5.06,0,0,1,3.37,1.9c1.36,1.85,0,2-1.77,1.9a12.14,12.14,0,0,1-3.35-.25c-.5-.2-.93-1.1-1.38-1.11,0,0-1.27,1-1.47,1.09a8,8,0,0,1-3.1.27,1.65,1.65,0,0,0,.14-.48m-3.27-4.68c.34-.93,1-4.69-1-3.73-1.43.66-.48,4,.68,4.55.12-.27.24-.54.35-.82m-2.83-1.72c1.13.67,1-.57,0,0m4.3-.39c-1,0-.11.74-.12.8,0,.3,1.32-.8.12-.8m1.74,3.25c1.88-3.34-3-2.5-2.85-1,.7.12,1.71-1.06,2.29-.13s-.87.19-1,.15c-.35,1.17-1.45.1-1.24,1.58a10.65,10.65,0,0,0,.57,1.06c.82.42.75-.35,1.4-.46,0,.48.19,1.58.65,1.78.23.1.39,0,.64-.09.71-.37-.2-.85-.2-.83,0-.13.11-1.49.21-1.36-.47-.59-.89.37-1.4-.07a3.17,3.17,0,0,0,.92-.62m-5.34-2a1.68,1.68,0,0,0-2.56.69,3.11,3.11,0,0,0-.17,1.44c.11.5.64.69.82,1.18a11.83,11.83,0,0,1-1.11.42,17.45,17.45,0,0,1,0-3c-.91.53-2.53.88-3.1,1.82-.33.53,0,1-.55,1.29s-.82,0-1.2-.16c-1.16-.35-1.25-.81-2.69-.25A3.43,3.43,0,0,0,124,28.44c1.51,0,3.73.41,5-.28.6-.31.63-.88,1.39-.86s.74.59,1.33.93c.42.24,2.83.62,3.18,0-.5-.39-1.28-.15-1.26-.88,1.25.64,1.29,0,2-.74s.85-.46,1.64-.87c1.33-.68,1.42-1.48,0-1.7-.12-.48,0-.66.51-.55a.91.91,0,0,0-.67-.79m16.22,4.54a5,5,0,0,0-4.36-2c-.74.11-1.35.91-2.06.73s-.56-.66-.92-1.23-.37-.88-1.13-1.21c-1-.43-.83-.32-1.13.28-.19.37.11,1.06,0,1.47-.07.26-.51.69-.53.94a9.6,9.6,0,0,0,.28,1.35c.23.66-.88.47.48.8,1.61.39,2.13-1.48,3.37-1.42.47,0,1.08.67,1.52.86a5,5,0,0,0,1.22.31c1.07.13,4.5.87,3.26-.91M136,28.19c-.65-.37.88,1,.94,0a1.44,1.44,0,0,0-.94,0m17.41,3.91c0,.34,1.27.33,1.28,0s-1.28-.31-1.28,0"/>
      <path class="b" d="M135.77,23.32l.73-.08c.19.21-.76,1.55-.73.08"/>
      <path class="b" d="M117.74,24.69h.4v.23C117.71,25,117.87,24.75,117.74,24.69Z"/>
      <path class="b" d="M137,24.71l.36.42c-.37.15-2.18.83-1.93-.11.39.06,1.33.16,1.57-.31"/>
      <path class="b" d="M140.88,25.12c.12-.22.26-.25.44-.08-.09.25-.24.27-.44.08"/>
      <path class="b" d="M133.69,26.53c.24-.09.27.42.07.44s-.23-.26-.07-.44"/>
      <path class="b" d="M105.29,32.27a.3.3,0,0,1,.43.15c0,.43-1,0-.43-.15"/>
      <path class="b" d="M105.38,33.19c.23.1.18.7,0,.82-.22-.09-.19-.7,0-.82"/>
      <path class="b" d="M104.73,37.05a2.5,2.5,0,0,1-.53,1.24c-.6,0,.18-1.56.53-1.24"/>
      <path class="b" d="M105.42,37.32a18.44,18.44,0,0,1,0,2.23c-1.28.1-.2-1.71,0-2.23"/>
      <path class="b" d="M104.52,40.19c-.06-.37,1.52.36,1.65.54a1.44,1.44,0,0,1-.38,2.05c-1.82,1.28-2.8-1.32-1.27-2.59m-.52,1.2c.15.67,1.48-.21.73-.56-.45-.21-.57.21-.73.56m2.18-.3c-.15-.61-1.14-.33-.13.53a.89.89,0,0,0,.13-.53m-1.39,1.49c0,.3.77.29.73,0s-.73-.18-.73,0"/>
      <path class="b" d="M140.34,41.07a1,1,0,0,1-1,0,.9.9,0,0,1,1,0"/>
      <path class="b" d="M138.35,41a.59.59,0,0,1-.72.21.65.65,0,0,1,.72-.21"/>
      <path class="b" d="M130.82,41.31c.39.82-.53.19-1,.29-.2-.44.81-.3,1-.29"/>
      <path class="b" d="M128.94,41.35c.71-.07,0,.59,0,.52s-.6-.47,0-.52"/>
      <path class="b" d="M138.27,42c-1.89.11.72-1.41,0,0"/>
      <path class="b" d="M139.62,42.07c1.86-.35-1-1.2,0,0"/>
      <path class="b" d="M127.57,42c.92.14.45-.09,1,.39a3.15,3.15,0,0,0-1,0l0-.42"/>
      <path class="b" d="M129.25,42.16a6.94,6.94,0,0,1,.79,0v.26C129.56,42.57,129.36,42.48,129.25,42.16Z"/>
      <path class="b" d="M132.08,42.42a7.08,7.08,0,0,1-1,0v-.26C131.54,42.08,132,42.05,132.08,42.42Z"/>
      <path class="b" d="M132.64,43.59c-.8.23-.81-.2-1.32-.69a1.14,1.14,0,0,1,1.32.69"/>
      <path class="b" d="M114.2,43c1.35,0,.33.87.53,1.24s1.18-.24.81,1.09a8.63,8.63,0,0,0-1.17-.27s-.55.57-.69.52c-.8-.26-.2-.85-.12-1.22.12-.56.75.37.27-.64a.69.69,0,0,0,.37-.72"/>
      <path class="b" d="M107.58,43.13c-.07,1-2,1-2.62.61.2-.5,2.22-.58,2.62-.61"/>
      <path class="b" d="M163.77,43.17c.13.79.67,1.47.65,2.22-.54.08-.62-.44-1-.65,0,.68-.36.87-1.05.59,0-.68-.17-1.12.63-1-.11-1-.67-1.07.76-1.15"/>
      <path class="b" d="M123,43.21c0,.42.16,2.06-.65,1.68.31-.48.15-1.74.65-1.68"/>
      <path class="b" d="M155,43.36c.46.12.57.46.36,1a1.88,1.88,0,0,1,.86.63c-.74,1.09-1.21-1.64-1.22-1.65"/>
      <path class="b" d="M123.7,43.63a1.54,1.54,0,0,1,.69,1.72,10.47,10.47,0,0,1-.69-1.72"/>
      <path class="b" d="M139.16,43.65c.05,0-.79,0-.81.23-.06.87,2.12-.07.81-.23"/>
      <path class="b" d="M131.45,45.81c0-.89-1.26-1.16-1.32-1.55-.12-.8,3,1,1.32,1.55"/>
      <path class="b" d="M129,44a.63.63,0,0,0,.61.29c-.31.57-.61.33-.88,0A.27.27,0,0,0,129,44"/>
      <path class="b" d="M128.22,45.37c-.64.1-1.15.15-.65-1.09a.74.74,0,0,1,.65,1.09"/>
      <path class="b" d="M165.15,44.87c.23-.1.32.57.06.59a.38.38,0,0,1-.06-.59"/>
      <path class="b" d="M129.61,44.89c.88.15.63.08,1.08.69-.86.1-.41.24-1.38-.36q.33,0,.3-.33"/>
      <path class="b" d="M123.57,44.91c0,.61.19,1.3-.67,1.47C123.1,45.84,123.06,45.2,123.57,44.91Z"/>
      <path class="b" d="M165.36,45.89c.77.61.27,3.43.27,4.26,0,1.9,0,3.81,0,5.71,0,.69,0,8.78-.19,8.77s-.09-6.49-.12-7.21-.44-1.26-.51-1.87.43-1.16.48-1.86c.19-2.64-.51-5.33.09-7.8"/>
      <path class="b" d="M162.49,46c.14.34.36.2.4.29.26.62-.39.91-.38,1.59s.38,1.25.38,2.23c0,.63.07,1.32,0,1.95-.1.89-.61,1.6-.66,2.37a9.71,9.71,0,0,1-.71-5.79c.1-.63.11-1,.17-1.5.09-.84-.42-1.09.79-1.14"/>
      <path class="b" d="M114.68,48.16c0,.68.37,7.82-.94,7.33-.74-.27-.48-3.36-.48-4V49.12c0-.53.28-1.17.29-1.53,0-.52-.85-1.47.07-1.6s.72,1.63,1.06,2.17"/>
      <path class="b" d="M115.46,46c1.49.13.59.5.65,1.13.09.92.2,1.9.26,2.94a13.82,13.82,0,0,1,.28,3.16,6.54,6.54,0,0,1-.29,1.76c-1.29,1.5-1-3.26-1-3.92a33.51,33.51,0,0,0,.12-3.56c0-.44-.37-1,0-1.51"/>
      <path class="b" d="M164,46.29h.36c0,2.19,1.18,6.12-.11,8.07a4.11,4.11,0,0,1-.65-2.81c0-1.51-.4-4,.4-5.26"/>
      <path class="b" d="M121.77,47.47c.34-.06.31.42.25.65h-.23l0-.65"/>
      <path class="b" d="M172.84,48.12a5.72,5.72,0,0,1,.48,1.32,3.28,3.28,0,0,1-1.21,0c-.09-.24.58-1.1.73-1.29"/>
      <path class="b" d="M99.7,48.66a1,1,0,0,0,.44.63,1.16,1.16,0,0,0-.36.46.64.64,0,0,0-.44-.42.89.89,0,0,0,.36-.67"/>
      <path class="b" d="M105.19,48.66c.12.66-.09.19.33.69,0,.61-1,.29-1.17.15.35-.3.25-.85.84-.84"/>
      <path class="b" d="M135.08,51.74c-.68-.09-.75-3.08-.63-3.08.34,0,.7,2.88.63,3.08"/>
      <path class="b" d="M137.74,57.55c.7.76.3.57.41,1.43a4,4,0,0,0,.68,1.63c.39.66,1.39,1.43,1.65,2,.48,1-.08-.06-.61.63,0,.41.71,1.15.82,1.5.31,1,0,1.14.86,1.74a2.17,2.17,0,0,0,2.07.41c.23,0,2-1,1.52-.35-.69.95-2.49.61-3,1.49,0,.31,1.26.84.83,1.38s-1.19-.86-1.39-1.18a37.77,37.77,0,0,1-3-6.7,59.91,59.91,0,0,1-2-6.29c-.45-1.64-1.89-4.59-1.29-6.3a30.71,30.71,0,0,1,1,3.76c.4,1.66,1,3.33,1.52,4.88"/>
      <path class="b" d="M100.75,49.88c.15.51-.57.47-.8.31a.85.85,0,0,1,.8-.31"/>
      <path class="b" d="M133.23,50c.23,0,.25.82,0,.84s-.28-.83,0-.84"/>
      <path class="b" d="M98.65,50.44a.67.67,0,0,0,.18.53c.24.25.1.46-.43.62a18.77,18.77,0,0,0,0,2.25A16.27,16.27,0,0,0,98.63,57c-.71-.23-.48-.44-.49-1.25l0-2.05a11.78,11.78,0,0,1-.17-2.4c-.73-.39,0-.6.25-1.17l.46.35"/>
      <path class="b" d="M175.31,54.89l-.46,0a5.87,5.87,0,0,0,0-1.51c-.11-.26-.5-.39-.61-.63s-.79-.45-.54-.86c.1-.16,1.37,0,1.39.06C175.66,52.53,175.31,54.12,175.31,54.89Z"/>
      <path class="b" d="M171.14,52.12c0,.23-.79.78-.85,1-.24.63.4,1.41.31,1.83-.27,1.24-.75-.42-.77-.5a11,11,0,0,1,0-2.29Z"/>
      <path class="b" d="M108.42,52.49v3.32c-.11,0-1-.62-1-.65.42-.56.34-.74.12-1.34-.12-.34-1.07-1.18-1.08-1.43s1.74.13,2,.1"/>
      <path class="b" d="M104.25,52.41c.18.24-.79,1.29-.85,1.68-.14,1,.66.45-.43,1.4-.08-.62-.26-1-.34-1.5-.23-1.51.2-1.61,1.62-1.58"/>
      <path class="b" d="M163.39,54.17s.67.95.67,1a.75.75,0,0,1-1.07.73c-.79-.6.1-1.08.4-1.7"/>
      <path class="b" d="M145.05,54.42c.21-.08.31.57.06.59a.38.38,0,0,1-.06-.59"/>
      <path class="b" d="M115.19,57.78c-1.13,0-1.41-2.48-.28-2.41,1.51.08.39,1.91.28,2.41"/>
      <path class="b" d="M164.61,59.73c.44,1.07,0,2.25,0,3.49,0,.48.24,2.09-.62,2s-.42-1.77-.41-2.18c0-2.65-.36-5.1.74-7.12.2.54.74,3.54.26,3.84"/>
      <path class="b" d="M114.66,59.6c-.21,1.37,0,4,0,5.87-1.48,0-1.36-.82-1.36-2.16,0-1,.15-2.21.1-3.13,0-.49-.49-1.59-.06-2.09,1.09-1.25,1.19.89,1.32,1.51"/>
      <path class="b" d="M116.47,58.13c0,2.47.06,5-.07,7.36-1.12-.1-.78.24-1.1-.79a7.44,7.44,0,0,1,0-2,6.48,6.48,0,0,1,.27-2.93c-.73-.7-.28-2.57.89-1.64"/>
      <path class="b" d="M111.16,64.17c1.33,3.5-.92-.2,0,0"/>
      <path class="b" d="M164.65,66c-.05.3-.73.22-.84,0s.73-.23.84,0"/>
      <path class="b" d="M179.07,67.55c-.5,0-1.48.22-1.5-.45a1.31,1.31,0,0,1,.5-.85c1-.41,1.08.68,1,1.3"/>
      <path class="b" d="M147.67,67c.21.09.23.2.05.33-.18-.08-.19-.19-.05-.33"/>
      <path class="b" d="M114.66,68c-.19.43-.59,2.36-1.15,2.41,0-.82,0-1.65,0-2.47l1.19.06"/>
      <path class="b" d="M162.41,67.9a3.6,3.6,0,0,1-.84,2.2,17.63,17.63,0,0,1,0-2.18c.28,0,.6.39.8,0"/>
      <path class="b" d="M163.77,67.9c1.28,0,.87.75.88,1.86a3.59,3.59,0,0,1-.88-1.86"/>
      <path class="b" d="M163.49,70.25a1.4,1.4,0,0,0,.61,0c-.09.72-.56,1.13-.67,1.91-1.12-.45-1.35-2.52.08-2.83,0,.29,0,.58,0,.88"/>
      <path class="b" d="M147.57,71.42c-.3-.06-.31-1.07,0-1.07s.22,1,0,1.07"/>
      <path class="b" d="M178.5,71.88h-1.32c0-.53.15-1.6,1-1.38.66.18.3,1,.34,1.38"/>
      <path class="b" d="M181.73,72.15l-1.53,0c.17-.57.2-1.35,1-1.24.64.08.83.68.52,1.26"/>
      <path class="b" d="M126.92,73.41l.44.51a1.51,1.51,0,0,1-.79,0,1.4,1.4,0,0,1,.35-.55"/>
      <path class="b" d="M125.48,73.43a1.52,1.52,0,0,1,.42.55,2.91,2.91,0,0,1-.78,0,1.12,1.12,0,0,1,.36-.57"/>
      <path class="b" d="M126.73,74.67a.63.63,0,0,1-.18.71c-.49,0-.9-1.09.18-.71"/>
      <path class="b" d="M139.67,74.61c.74.6.1,1.44.75,2.24-1,.46.59,3.27-.4,3.5-1.06-1.11-.69-4.44-.35-5.74"/>
      <path class="b" d="M180.66,76.75c-.7-.12-3.46-.16-2.88-1.53.48-1.14,2.82.65,2.88,1.53"/>
      <path class="b" d="M126.84,76.37a1.06,1.06,0,0,1-.13.52c-.25-.06.22-1.26.23-1.26.41,0-.15.79-.1.74"/>
      <path class="b" d="M124.62,76.64c.58,1.62-1,2.54-1.18,4-.66-.5.42-1.52.68-2.18.09-.24.35-1.79.5-1.78"/>
      <path class="b" d="M180.39,78c-.24.81-2.62,1.17-2.88.23-.49-1.74,2.32-.6,2.88-.23"/>
      <path class="b" d="M149.87,78.44c.63-.21.79,0,.51.67-.18-.22-.35-.44-.51-.67"/>
      <path class="b" d="M142.41,80.58c-.84-.08-.38-1,0-1.24a2.27,2.27,0,0,1,0,1.24"/>
      <path class="b" d="M138.39,79.55c.94-.18.22.61.16.47s-.92-.33-.16-.47"/>
      <path class="b" d="M126.44,81.12c.07.27.77,3.22-.84,2.14-1-.65-.07-2.18.84-2.14"/>
      <path class="b" d="M124.39,81.33c.52.13.48,1.89-.14,1.88s-.1-.68-.14-.82a6.64,6.64,0,0,0-.29-1,.62.62,0,0,1,.57-.11"/>
      <path class="b" d="M136.33,82.72c-.14.08-.26.06-.33-.08s.46-.25.33.08"/>
      <path class="b" d="M136.9,83.41c.2.65-1,.56-1,.25s.79-.34,1-.25"/>
      <path class="b" d="M151.57,86c.13.33-.34.32-.36.12s.18-.24.36-.12"/>
      <path class="b" d="M128.08,87.33c-.19.16-.34.13-.44-.09s.5-.31.44.09"/>
      <path class="b" d="M174.35,88.94c1.81-.27,3.65,2.28,1.18,2.17-.95,0-2.64-2-1.18-2.17"/>
      <path class="b" d="M139.92,89.13c0,.27-.71,1.18-1,.86,0-.27.8-.92,1-.86"/>
      <path class="b" d="M103,92.71c.44,0,.88,0,1.32.07-.38.26-.55.73-1.11.65a.85.85,0,0,0-.21-.72"/>
      <path class="b" d="M132.5,93.8c.27,0,1.07.6,1.05.89-.31.1-1.16-.53-1.05-.89"/>
      <path class="b" d="M105,101.22c.4-.64,3.53-.17,4.23-.17h53.63c.89,0,7.3-.6,7.62.18,0,0-5.7.22-6.38.22H112.7c-.89,0-7.47.54-7.74-.23"/>
      <path class="b" d="M133.38,103.19c.11.42-.4,1.8-.88,1.85-.09-.35.3-2.13.88-1.85"/>
      <path class="b" d="M108.75,105a1.27,1.27,0,0,1,.82-.73c.3.46-.41,1.09-.82.73"/>
      <path class="b" d="M141.55,106.82c.22,1,1.51.49,2.55.6a24.86,24.86,0,0,0,4.87-.16,3.68,3.68,0,0,1-1,1.43c-.67.68-.41.66-1.24.58-1.26-.12-1.91-.72-3.3-.46a5.06,5.06,0,0,0-2.62,1.09c-.37.35-1.08,2.37-1.44,2.49-.52.17-.83-1.29-1.25-1.79A5.28,5.28,0,0,0,135,109c-2.29-.32-3.75,1.38-4.86-1.42,1.65,0,3.35,0,5-.13a8.25,8.25,0,0,0,1.92-.09c.61-.22,1.45-1.94,2.29-2,.46,0,1.75,1,2.23,1.47"/>
      <path class="b" d="M138.07,114.59c.18.87-.65.51-.71.57.2-.21.24-.8.71-.57"/>
      <path class="b" d="M139.25,114.87s.12,1.54.1,1.57c-.46-.23-1-1.51-.1-1.57"/>
      <path class="b" d="M133.36,120.36c-.66.8-.81.93-1.49.06.9-.53.77-.76,1.49-.06"/>
      <path class="b" d="M136.46,123.44c-.93-.6,2.27-2.9,0,0"/>
      <path class="b" d="M131.35,122.18c1.06-.12,1,1.53.29,1.74s-1.59-1.59-.29-1.74"/>
      <path class="b" d="M138.49,43.15a.64.64,0,0,0,.78-.08c-.16.4-.46.36-.78.08"/>
      <path class="b" d="M120.55,13.6c.07.29-.33.41-.24.72s1.81.16,2.21.16c2.18,0,4.31-.23,6.48-.23l12.43,0c3.67,0,7.19-.25,10.82-.23.47,0,3.34.35,3.62,0s-1.48-.36-1.71-.37H150.7c-3.85,0-7.45.32-11.28.32H122.93c-.29,0-1.88.13-1.66-.26s4.19-.08,4.9-.08h6.45c1.64,0,3.84.38,5.45,0,.54-.13.86-.38,1.39-.47,3.33-.6,7.31,0,10.69,0h4.32c2.28,0,3.79,1.7,5.52,3.12,12.31,10,20.81,24,23.26,39.28s.23,31-7.74,44.44c-8.13,13.73-20.48,23.46-35.35,29.14-2.93,1.13-7.61-2.1-10.25-3.43a68.63,68.63,0,0,1-10.18-6.37,72,72,0,0,1-15.3-16,60.51,60.51,0,0,1-9-20.64,70.25,70.25,0,0,1-1.75-22.47C95.09,45.36,101.86,31.73,112,21a50.94,50.94,0,0,1,4.11-3.8c1.33-1.14,2.79-2.92,4.43-3.57M137,48.05a8.15,8.15,0,0,0,2.22.8c.08-.93-.83-.42-1.47-.69s-1.4-1.53-2.05-1.3c.36,1.77.94,3.47,1.47,5.2.22.71.3,1.68.85,2s1.37-.22,1.52.59c-.08.19-.54,0-.71.25-.26.43,0,.5-.13,1-1,.12-1.84-3.49-2-4.11s-.95-4.93-1.57-5c0,.23.22,1.44-.07,1.52s-.09-1.21-.19-1.37c-.59-.92-1.68-.19-2.13.36a3.1,3.1,0,0,0-.68,2.79c.06.28.79,2.95,1.18,2.89s-.07-1.51.25-1.8c.32.11.39,2.82.44,3.35,0,.16-.24.57-.23.86a6.88,6.88,0,0,0,1,2.34,10.76,10.76,0,0,1,1.5,4.18c.13.93,1.48,4.94,1,5.61-.55-.4-1.35-6-2-5.83s1.18,5.12,1.4,5.52.81.7.84.8c.33,1.19-.46.72-1,.73.33,1.92,1.3,4.81.54,6.77-.25.66-1,.86-1.07,1.47,0-.14,1.18,1.82.28,1.61-.42-.1-.85-1.39-1.31-1.67-1.59-1-.24.68.28,1.33,1.05,1.29,1.61,2.33,3.32,2.79a12.43,12.43,0,0,1,2.65.6c.4.21.71.67,1.1.76,1.59.41,2.61-1.12,3.35-2.28.53-.83,1.12-1.59,1.68-2.39a2.5,2.5,0,0,0,.77-1.26,1.31,1.31,0,0,0-.5-.25c-.08-.32-.1-1.53-.82-1.66-1.26-.22-1.06,1.43-1.24,2.32-.13.64-.7,4.75-1.86,4.56-.23,0,.57-2.66.57-2.68,0-.5-.35-.57-.36-1.12a12.26,12.26,0,0,1,.62-2.49c.09-.37,1.22-4.14.72-4.13-.67,0-2.07,3.54-2.47,4.13-1.5-.7-3.35-4-4.07-5.42a20.44,20.44,0,0,1-1.39-4.41c-.45-2.15-.58-4.32-1-6.48-.13-.74-1.82-6-1.14-6.37,1.05.84,1.11,4.6,1.41,5.89A41.27,41.27,0,0,0,138.62,65c.63,1.5,1.55,4.42,2.9,5.42,1.62,1.2,2.29-.71,2.19-2A3.37,3.37,0,0,0,146,66.85c.44-.91-.09-1.19-.11-2,0-.34,1.36-4.23,1-4.29-.68-.1-2,3.42-2.33,3.95s-.38.72-1,1c-.26.1-1.7.19-1.86-.15.49-.35.64-.12.91-.71.09-.21-.22-1,.05-1.13.28.07.16,1,.64.52a3.89,3.89,0,0,0,.2-1.82.53.53,0,0,0-.8-.34c-.22-.4-.08-.57.43-.51.22-.26,1.25-.62,1.25-1.08a8.25,8.25,0,0,0-1.44-.3c-.36,0-1,.4-1.22.22.27-.68,0-.36-.3-1,.45,0,.73-.38,1.2-.36.2-1-2.83-1.13-3-1.94.36-.35,1.34.75,2,.25-.13,1.1,1.21.63,1.76.56a2.22,2.22,0,0,0,0-.63c-.3,0-1.33.27-1.51-.16.35-.3.86-.15,1.25-.49s0-1.12.65-1.19c-.55-.42-.43-1.14-1.28-.68-.41.23-.39.91-.62,1.08a7.53,7.53,0,0,1-.47-1.39c.36-.21.7-.43,1-.65a4.68,4.68,0,0,0,.88.53,7.63,7.63,0,0,0-.27-3c.22-.3.16-.47.32-.76-.15-.59.12-.77.81-.52l.06.56q-.21.81.57.57l0,.76c-.49,0-.58.34-.25.94.24,0,.31.15.22.4a14.19,14.19,0,0,1-.26,1.47c0,.64.22.79.22,1.3,0,1.29-1.19,2.62-1.1,3.87.76-.09,3.36-.13,3.58-.83.16-.48-2.18.21-2.66.14.29-1,.66-1.9.89-2.91.2-.85.71-1.66-.22-2-.05-.62,1.84-.7,2.31-.79a5.22,5.22,0,0,1,1.63,0c1.41,0,2.44-1.29,3.88-1.23.08.17-.24,1.19-.48,1.15-.05-1.4-.92.68-.92,1.13a.5.5,0,0,0,.56-.15s.18,1.05-.17,1c0-.29.19-.63-.42-.46a4,4,0,0,1-.24,2c-.19.55-1,3.61-.28,3,.54-.47.38-1.75.51-2.33a17.08,17.08,0,0,1,1.44-3.62c.33-.67,1.36-1.61,1-2.29-.25-.45-1.23-.73-1.65-.78a3.83,3.83,0,0,0-2,.53c-.17.09-.43,0-.64.13s0,.6-.26.64a6.53,6.53,0,0,1-2.56-.46c-1.29-.92-1.61-3.62-2.75-4.88-.65-.73-2.81-1.69-1.44-.29a9.78,9.78,0,0,1,1.28,1,5.58,5.58,0,0,1,1.4,2.1c-.35.16-1.56-1.75-1.94-1.95a4.28,4.28,0,0,0-1.26-.43c-.67,0-.4-.07-1,.59-.9,1-3.58,2.74-4.31.4m8.49-33.68a1,1,0,0,0,.35,1.9c.55.08-.13-1.82-.35-1.9m-19,.59.9,1c.45.31.2,1.18.63,0,.27.19.07.94.46,1a2.49,2.49,0,0,0,.09-1.53c-.62-1.76.22.1-.42-.44-.18-.15-1.17-.45-1-.48-.39.06-.43,0-.67.5m20.65-.57c-.35.55-.88,2.65.27,2.71s.85-2.69-.27-2.71m1.86.13c.09.55-.35,1.34-.35,1.95.52,0,.86-.43,1.19-1a5.35,5.35,0,0,0,.63-1.07,6.6,6.6,0,0,0-1.47.08m7.94-.13s-2,.39-1.94.34a5.16,5.16,0,0,0,0,2c.5.75,2.48.67,2.35-.46-.32,0-2.22.61-1.78-.69.31-.92,1,0,1.47.06.09-.16.29-1.21-.05-1.24m-16.65.49c.27.44-.24,1.66.64,1.38,0,0,1-1.48,1-1.74-.64-.07-1.28-.32-1.61.36m-7.93-.38c-1.91-.62-1.33,2.38-1,2.39,0,0,.68-1.23.72-1.32.18-.33,1.29-.76.3-1.07m-12.72,1.93c-.12,1.22,2.12.81,2.45.09,1-2.1-1.76-1.29-2.2-2-14.8,11.34-25,29.06-26,47.82a68.74,68.74,0,0,0,3.94,27.15A64.92,64.92,0,0,0,113,112.69a62,62,0,0,0,22.94,15.21c1.1.4,2.42,1.1,3.53,1a14.58,14.58,0,0,0,3.2-1.2,65.72,65.72,0,0,0,6.37-3A75.35,75.35,0,0,0,160.52,117c14.42-11.56,22.72-29.67,23.36-48a65,65,0,0,0-6.95-30.88,58.69,58.69,0,0,0-8.6-13.37A70,70,0,0,0,162.59,19c-.52-.47-4.3-4.12-4.71-3.87,0,.79,5.05,4.29,4.69,4.65-.27.14-1-.43-.79.69a1.07,1.07,0,0,0,1.09.8c.62,0,.53-.47,1.09-.35s2,2,2.47,2.53a.81.81,0,0,0-.86-.09c-.15.56,1.16,1.3,1.17,1.24s-.81,0-.84.13c-.06.42.87.23,1.1.33v.19c-.94.08-.77,1.2-.91,1.74-.05.2-.51.9-.5,1.17,0-.07.34,1.42.21,1.16.17.34-.27.36.47.31,1.08-.06,1.49-.48,1.47-1.54a12.77,12.77,0,0,0-.47-2c-.1-.67.16-.86.21-1.61,7.9,7.88,12.73,20.13,14.88,30.91a64.12,64.12,0,0,1-3.14,35.13,76.87,76.87,0,0,1-8,14.66c-3,4.57-7.06,7.94-11.1,11.55A63.16,63.16,0,0,1,147,125.19c-2.24,1.17-4.95,2.92-7.5,3.3-2.3.34-5.31-1.5-7.4-2.5a63.84,63.84,0,0,1-16.39-11c-1.22-1.18-2.39-2.42-3.57-3.64-.62-.63-3-2.38-3.21-3.33,0-.33-.08-.92.57-.74s0,.73.33.91c.57.36,1.82-1.3,2.71-1.57-.48-.64-.57-.34-1.24-.53-1.11-.31-.47-.48-1.64,0-.34.14-1,.85-1.44.78s-1.69-2.23-2-2.66a56.4,56.4,0,0,1-6.28-10.82c-3.32-7.49-5.71-16.1-5.68-24.33S95,52.88,97.83,45.1a92.55,92.55,0,0,1,5.33-11.42c.57-1.1,5.78-9.81,7-9.24A.54.54,0,0,0,110,25c.17.24.62-.16.86,0a.69.69,0,0,0-.32.44c.77.58,1-1,1.32-1.26-2-.68,1.38-3.63,1.91-3.35.07.66-.43.36.12.74-.27-.19,1.17,0,1,0a4.26,4.26,0,0,0,.38-1.11,3.5,3.5,0,0,0-.57-.65c.33-.38.67-.75,1-1.1a24.5,24.5,0,0,1,4.16-3.59c.4.61-.17.91-.21,1.34m17.61-1.93c-.62,1.76-.31,2.36-1.4,3.68-.41.5.55,1.56,0,1.85-.1,0-.16-1-.7-.94a2.08,2.08,0,0,0,.25-.75c-.65-.46-2.41,1.15-2.08,2s1.21-.57,1.74.49c-.43,0-1,.36-1.5.36s-.76-.21-1-.2a3,3,0,0,0-1.7.74c-.39.27-.13.37-.58.67a10.54,10.54,0,0,1-1.86.77c-.75.32-2.6,1.27-3.37.88.57-.69.24-.9.42-1.48,0-.1-.1-.43,0-.6s.81-.26.89.07c-.16.41-.71,1.09,0,1.43,1.13.52,1-.86,1.36-1.07.4,0,.65.31,1.15.19a3.06,3.06,0,0,0,1.18-.94c.59-.9.76-3.49-.76-3.65a10,10,0,0,0-.06,2.38v.81c.35-.11.51,0,.48.25-1.63,2.07-3.79-2.52-5.2-.19-.27.45.17,1.11.11,1.45,0,.16-.13.54-.13.55-.27.93-1.4,1.25-2.28,2-2.68,2.37-1.89,7-1.94,10.16,0,1.28-.63,4.56.26,5.41s2.08,0,2.56-.58c-.1,1,1,.75-.6,1-.42.08-2-.29-2.28.17.33.65,3.33.33,3.69-.19s0-1.88,0-2.41A3.12,3.12,0,0,1,125,36.3a3.55,3.55,0,0,1,1.91-1c.48-.06,1.84.63,2.12.45.17-1.27-3-.7-3.5-.43a27.53,27.53,0,0,0-2.1,2.61c-.81,0,1.72-2.75,2.05-2.92a4.05,4.05,0,0,1,2.73-.39c.78.27.83.91,1.72.88,1.07,0,1.2-1.16,1.92-1.92a6.47,6.47,0,0,1,2.58-1.53c1.79-.69,4.23-1.79,4.45-4,.77,3.52,3.61,3,5.8,5,.83.77.81,2.12,1.89,2.54s1.44-.48,2.42-1c2.79-1.42,5.31.64,5.87,3.37.27,1.33-.54,3.28,1.5,2.76,1.09-.28.61,0,.94-.88a9.78,9.78,0,0,0,.07-2.76c0-2.65-.13-5-.33-7.57a11.1,11.1,0,0,0-1.34-4.12,6.88,6.88,0,0,0-.66-.77.63.63,0,0,0,.32-.78c0-.71,0-1.41,0-2.12s0-2.85.54-3.15c1-.52.52.8.59,1.38.06.42.54,6.24.65,6.26.56.12.31-2.81.31-3.45a32.06,32.06,0,0,0,0-3.25c-.1-1.1-1.35-2.44-2.54-1.36s.79,4.87-.31,6.26c-.39-.44-1-.61-1.37-1,.42.44-.77-1.12-.54-.55-.38-.94.18-1.33-.55-2.06a1.62,1.62,0,0,0-2.49,0c-.86,1-.14,1.16,0,2.05-1.76.46-3.17-1.24-4.16-1.9s-2.32.42-3.2-.51c.13-.07,1.2-.54,1-.38.46-.42.52,0,.27-.69a2.56,2.56,0,0,0-1.83-1.11,12.35,12.35,0,0,1,.08,1.76c-.72.2-.58-1.7-.73-2.12a13,13,0,0,0-1.32-2.73c0-.69-.35-.92-1-.68a10.14,10.14,0,0,0-1.46,0m-.66.32c-.07-.55-1.34-.49-1.42.06-.05.31,1.12,1.11,1.38,1.11a3.08,3.08,0,0,0,0-1.17m-.81,2.3c1.23,0-.28-1.58-.45-1.73-1.4-1.25-.35-.12-.85.12s-.26.29-.56.3-.28-.69-.24-.68c-.74-.11-2.19,1.7-1.61,1.74.29-.11.51-1,1-.93.88.14.1,1,1.09.85.58-.06.23-1.08,1.09-.78.31.1.33,1.11.57,1.11m18-1.61c.17.42.61,1.62.87.58s-.85-2.18-.87-.58m-26.34,1.15c-.07-1.07-1.64-2-2.54-1.86a2.26,2.26,0,0,0-1.45.73c-.06.06-1.18,1.62-.27,1.63.47-.6.18-1.48,1.08-1.21.43.13.31,1.15.87,1.21.32,0,.76-.91.88-1.09s1.21,1.08,1.28,1.09l.15-.5M129,14.82c-.08.67,0,3.23,1.26,2.07a2.31,2.31,0,0,0,.14-1.8c-.33-.48-.66-.3-1.4-.27m-6.37,0c-.31.2-.13.86-.11,1.12a10.47,10.47,0,0,0,1.15-1.06,2.16,2.16,0,0,0-1-.06m29.11,1c-1.08,0,.05-1.48-1.43-.79-.12,0-1.11,1.66-.48,1.8.33-.21.08-.73.59-.91s.6.21.85.37c.47.29-.26.83.65.75.38,0-.11-1.38,1.2-1.09-.07.48.19.72.63.88a1.44,1.44,0,0,0-.84-1.75c-1-.23-.26.75-1.17.74m-6.94.53a.62.62,0,0,0,.27.46c.59,0-1.33-3.53-1.67-.67-.18-.14-2-1.57-1.47-.24,1.07,0,.44,1,1.4,1.18.52.09.65-2.33,1.47-.73m-24.67,1.36c9.34-.18,15.67.19,15.66-.16s-7.26-.24-7.75-.24h-5.43c-.66,0-2.62-.26-3.19.06,0,.4.46.34.71.34m26.62-.4c-.32,0-4.78-.18-4.86.1s6.62.31,7.29.31,8.26.15,8.23-.22-9.78-.19-10.66-.19m3.75,1.53a.77.77,0,0,0-.31.42.67.67,0,0,0,.71.08c.09-.62.65-1.34,1.46-.6.38.34.05.79.26,1.17s.45.05.71.4.91,3.19.94,3.18c.27-.05.18-2.1.13-2.32-.17-.78-.79-1.1-1.22-1.74s.07-.76-.8-1.26c-.58-.34-1.85-.48-1.88.67m-23.62-.15c-.19-.65-1-.82-1.6-.79-1.46.08-1,.82-1.39,1.65-.33.65-1,.74-1.22,1.64-.12.48-.18,3.49.63,2.26.39-.6-.08-2.14.2-2.82.11-.28.79-1,1-1.37.77-1.29,1.12-1.15,1.7,0,.27.55.08.54.58,1a3,3,0,0,0,1.18.56c.18-.81-.32-.51-.61-1.09l-.44-.21c0-.29,0-.58,0-.88M123,18.06c-.23.54-.61,1.38.18,1.64.22-.15.64-2.25-.18-1.64m24.89.07c-1.19-1.15-1.33,1.69-1,2.14,1,1.26.93-1.43,1-2.14m-25.76,5.3a31.51,31.51,0,0,0,.25-3.95c-.22-1.67-2.13-2.17-2.75-.43-.51,1.42,0,4,0,5.55,0,.43,0,2.63.5,2.81.45-.51.1-1.95.15-2.56s.29-1.35.32-2c0-1.18-.48-2.19,0-3.34,0-.14.15-1.49.83-.79.2.2.06,1.49.09,1.8,0,.55-.07,4.47.44,4.55.31-.43.14-1.16.14-1.63m5-5.07c-.08.4-.08,1.38.55,1.19.43-.13.32-1.35.06-1.55a1.1,1.1,0,0,0-.61.36m4.82-.36a1.75,1.75,0,0,0-.36.84c.51-.11.7.11.57.67a.71.71,0,0,0-.34.77c.8-.07,1.83-1.75.74-2.09-.15.18.1.66-.27.63A2,2,0,0,0,131.91,18Zm13.39,1.32c0,.24-1.15-1.21-.88-1.11-.6-.22-.78.3-.45,1a3.9,3.9,0,0,0,1,.95c.79.07.38-.44.33-.8M153.45,18c.07.45-.11,1,.07,1.45.79,0,.8-1.66-.07-1.45m-3.87.38c0,.16-.2,1.2.23,1.07.22-.07.22-1.37-.06-1.3l-.17.23m-21.32.65c0,.28-.22,1.91.07,2.1.65.42.52-.94.53-1.14,0-.78-.52-2.81-.6-1m19.41,1.8a.51.51,0,0,1-.71.27c-.06,1.17,1.65.71,1.78-.27A4.26,4.26,0,0,0,147.67,20.87Zm16.2,6.94c.3.58,1.15,1.4,1.48.62a23.17,23.17,0,0,0-.64-2.55c-.18-.84-1.17-4.85-2.32-4.24-.54.28-.55,2.26-.67,2.85-.2,1-.83,2.17-.95,3.13-.41,3.25,2.22-1.74,2.45-1.84.59.43.34,1.44.65,2m-47.17-.15c-.3-1.47-1-3.06-1.45-4.52-.23-.78-.25-1.56-1.11-1.05-.64.38-.69,2.66-.88,3.31-.32,1.09-1.08,2.15-1.2,3.29,1.46.2,1.35-1.92,2.33-2.1.7-.13,1.8,1.75,2.29,2.39a6.47,6.47,0,0,0,0-1.32M159,23.11c-1.82,1.75,3.05,1.64.46-.56l-.46.56m-41.5.38a6.59,6.59,0,0,0-.77,0c.31.44.21,2.21,1.33,1.81.33-.12.79-1.08.78-1.24a.87.87,0,0,0-.61-.86c-.52-.27-.36-.65-.73.29m40.89,1.45c1.54,0-2.89,6.38,1.43,5,1.24-.39.67-.86.44-2-.18-.85-.53-2.58-.26-3.08-.29-.29-1.37-.52-1.61,0m-.31,1.44c.48,0,.43-1.85-.53-.52a.63.63,0,0,0,.53.52m-39.22-.75a1.19,1.19,0,0,0,.21.52c1.19-.49-.08-.69-.21-.52m-.2,1.65c-.25-1.91-.92-1.86-1.31-.05-.07.31-.65,2.1-.41,2.36.65.71.72-.06,1.19-.46.25.06.6,1.52,1.18.69a19.83,19.83,0,0,0-.65-2.54m-7,1.83c-.19-.43-.06-3.4-1-3.21-.37.07-.77,3.7-.77,3.94a3.62,3.62,0,0,0,2.43,0,2.53,2.53,0,0,0-.61-.73m50.82-1.45c-.44.86.05,1,.63.25.21-.27.42-1.6,0-1.53a6.64,6.64,0,0,1-.59,1.28M114.62,27a17.73,17.73,0,0,0-2.23,2.45c-.08.54,2.14-1.68,2.15-1.69.25.28,1.36,2.22,1.74,1.8A13.53,13.53,0,0,0,114.62,27m47.77,1.89c.05-.54-1.25.18-.95.73.49.33.92-.48.95-.73m2.32,1.74a7.72,7.72,0,0,0-.57-1.44c-.61-.4-.23.22-.48.43s-.76,1.37-1,1.66c-.67.16.11-.61-.71,0a5.88,5.88,0,0,0-.88.85l-.44.1v1.15c0,.65,0,1.32,0,2,0,.38.08,3.32.42,3.35.64.06-.05-4.64.19-5.16.15-.33.67-.44.88-.7s.17-.69.53-1c.79-.59,1.1-.13,1.49.41s1.23,3,1,.4c0-.37.06-.85-.19-1.14s-.9-.14-.87-.1c-.71-.95.64-.43.71-.86m-19,4.92c-.52-.56-.58-1.58-1.16-2.2a4.53,4.53,0,0,0-1.7-1,12.36,12.36,0,0,1-4.14-2.74c-1.38,1.56-2.61,2-4.49,2.73-.68.28-3.78,2.24-2.95,3.33.55,0,.81-1.15,1.06-1.49a4,4,0,0,1,1.86-1.4c1.62-.73,3.4-1.17,4.63-2.56a6.67,6.67,0,0,0,2.44,1.93,8.61,8.61,0,0,1,2.57,1.24,6,6,0,0,1,1.25,1.78c.09.12,1,1.6,1.2.65a2.44,2.44,0,0,1-.57-.26m15.78-5.36c-.59.67,1.44.59.93-.34a1.26,1.26,0,0,0-.93.34m-48.37-.34c-.25,0-.53.6-.52.78.26.18.77-.21,1-.11s.67.63.8.64a1.48,1.48,0,0,0,1.38-1.14c-.77-.6-.76.53-1.32.48s-.8-.61-1.3-.65m52.61.23c-.13.25-1.09,1.37-.23,1.57.62.14,1.05-1.36.23-1.57m1.51.3c0,.39.64,1.29,1.06,1.27.06-.49.19-1.37-.23-1.52-.2-.06-.84-.09-.83.25M119.86,31c-.5-1.56-2.91-.39-2.78-.28.31.25,1.07-.29,1.52-.14.88.28.4.68.78,1.15.39.09.57-.45.48-.73m40.68.16c.38-.07-.2-.93-.25-1-.7,0-.21,1.07.25,1m-48.62.13c0-.4-.43-1.07-.83-1-.78.16.3.74.33,1-.38.42-.79.12-1.21.76A3.1,3.1,0,0,0,110,33.9c0,1.15-.7,3.73.62,3.92,1.7.23,1.14-2,1.15-3,0-.68-.16-1.7-.15-2.22a.64.64,0,0,1-.24-.76.76.76,0,0,0,.55-.48m-2.56-.08c0,.79.7,0,.73-.35.08-.85-.76-.17-.73.35m48.87-.76a1.14,1.14,0,0,0-.1.63,1.47,1.47,0,0,0,.75-.46.79.79,0,0,0-.65-.17M118.9,36.13c0-1,.63-4.27-.48-4.88-.83-.46-.42.3-.78.66-.71-.18-.92.06-.65.74a.9.9,0,0,1,0,.4c-.11.26-.91-1.75-.94-1.77-1-.62-.73.83-.54,1.36-.07.3.12.42.56.36,0,.58,0,1.16,0,1.73,0,.87,0,1.74,0,2.61a20.47,20.47,0,0,1-.47,3.69c1.12-.38,1.12-2.65,1.13-3.56,0-.4-.33-3.12,0-3.38.79.16-.21,3,.13,3.42s.62.43,1.11.35c1-.15.84-.76.84-1.73m40.74,1.44c1.17,0,1-6.16-.17-6.42-1-.22-2.15,6.49.17,6.42m6.79-6a1.72,1.72,0,0,0-.57,1.05c-.14.54,0,.54,0,1,0,.79,0,1.58,0,2.38,0,1.09-.24,1.35.78,1.62,2.05.55,1.42-2.92,1.38-4.18,0-1-.53-3-1.58-1.91m-61.09-.38c0,.35-1.14.94-1.23,1.48a5.89,5.89,0,0,0,.2,1.25.76.76,0,0,0-.18.48c0,.2.52.27.58.45a3,3,0,0,1,.08,2c-.29-.31-.13-1-.23-1.34-.57.06-1.14,1.88-1.08,2.33.11.9.65.68.43,1.84-.15.77-1,1.73-.93,2.51s.74.93,1.56,1.26c.09.75-1.77-.34-1.7.44,1.09,0,2,.38,3.09.42s1.29-.24,1.56.88a7.87,7.87,0,0,1,.07,2.37c0,.4-1-.15-.31.52l.8.1c1.18,0,.56-.11.44-1.1s-.13-2.36-.24-3.23a8.93,8.93,0,0,0-.62-2.87c-.86-1.68-.18,1-.34,1.47-.57-.08-.89-2.88-.94-3.14-.21-1-.7-2.31-.82-3.24a3.29,3.29,0,0,1,0-1.17.8.8,0,0,0,.81-.36,2.92,2.92,0,0,0,0-1c.12-.9.26-.42,0-1.12a2.68,2.68,0,0,0-1.06-1.21m7.44,1a3.73,3.73,0,0,0-.29,2.8,32.5,32.5,0,0,1,.14,4.07c0,.44-.33,2.82.09,3.16.6.49,1.16-.44,1.13-1.11s-.69-1.25-.74-1.91c-.06-.81.16-1.82.16-2.72,0-.74-.08-1.52,0-2.26s.76-2.21.58-2.73c-.56-.19-.82.32-1,.7m59.7.58c1.34-.77-1.32-1.06-1.32-.06l.34.38a9.29,9.29,0,0,0-.06,1.29c.14.24.95.47,1.19.55.23-.64,1.35-1.55-.19-.92,0-.41,0-.83,0-1.24m-58.41.23c0,.62-.48,1.2-.52,1.91a15.27,15.27,0,0,0,.13,2c0,.38.28,2.1.9,2.14.85,0,.59-1.34.62-1.71s-.32-.59-.26-.91c0-.07.6-.31.66-.68.16-.86-.43-1.23-.66-1.93a4.32,4.32,0,0,1,0-1c-.34-.64-.81-.83-.87.18m49.42.36c-.1-.51.29-1.26-.5-1,.17,0-.74,1.79-.75,1.81a6.12,6.12,0,0,0-.47,2c.24.71.46.45.85,1.08s.42,2.76,1.25.74a12.62,12.62,0,0,0,.27-2.47,11.06,11.06,0,0,0,0-1.41,4.71,4.71,0,0,1-.68-.73m-44.15-.13c-.63,1.86.2,4.53-.28,6.58,0,.18-.41,1-.41,1,0,.91.28.45.45.88a10.38,10.38,0,0,1,.26,3.74c0,5,.3,10,.31,15.08,0,.68.52,6.34-1.15,4.73a2.39,2.39,0,0,1-.33-1.41c.16-1,.13.18.65.42,1,.46.19.28.35-.59a22.19,22.19,0,0,0,.17-4.17c0-2.36-.08-4.64-.23-6.85-.08-1.08.69-3.39-1.14-2.82-1,.32-.33,0-.6.89a11.1,11.1,0,0,0,0,2.64c0,3.42-.44,7.1-.09,10.49,0,.1.53,1.72,0,1.78-.72.07-.36-2.31-.36-2.54a36.29,36.29,0,0,0,0-4.3c-.07-.56-.41-1.1-.48-1.59a6.13,6.13,0,0,1,.42-2.22,27.61,27.61,0,0,0,.06-3.86c0-1.17-.24-1.17.7-1.55.09,0,1.2.05,1.33-.08.64-.68-.47-.6-.65-.66-.86-.29-.92.24-1.36-.43-.8-1.25.26-3.08-.62-4.34a12.65,12.65,0,0,0-1.75-1.91c-.71,0-1.81,2.08-1.87,2.46s0,1.72-.13,2.38a29.52,29.52,0,0,0-.06,3,60.13,60.13,0,0,0,.63,6,14,14,0,0,1-.27,2.54c-.12,1.65,0,3.35,0,5a9,9,0,0,0,0,2.43c.24.26,2.28.09,2.56.06,1.07-.11,1.84.24,2.64-.48,1.37,1.26,1.74.41,1.91-1.11a44.64,44.64,0,0,0,0-4.77c0-3.86,0-7.71,0-11.57a10.77,10.77,0,0,0-.3-2.25c-.34-1.94,0-4.34,0-6.32,0-.72.58-7-.27-7.28-.06.31-.11.62-.17.92m38.25.53a7.52,7.52,0,0,1,.28,2.34c0,.72-.68,4.77.34,4.43,0-.9.12-1.75.12-2.41,0-.42-.16-1.08-.16-1.62C158.17,35.74,158.66,33.42,157.59,33.7Zm-3,4.23a4,4,0,0,0-2.34-3.17c-1.1-.45-3.35-.48-4,.78s.76-.07,1.1-.28a2.94,2.94,0,0,1,3.51.45,5.27,5.27,0,0,1,1.34,3.46c.16,1.59-.34,2.21,1.25,2.49.68.12,3-.09,1.31-.65-.42-.14-1.62.26-1.93,0s-.17-2.52-.25-3.06m-16.46-3.08c-.17.35-1.3,1.58,0,1.53-.25.71-.2.47-1.05.57.05-.52.36-.74-.11-1.22-.2-.2-.7-.53-1.12-.27.77-.46-.35,1.09-.36,1,0,.33.73.42.88.53-.14.08-.34.51-.58.42-.45-.19-.26-.24-.53-.43s-1-1.3-.94-.16c0,.08,1.06,2,1.12,2,.66.69,1-.09,1.75-.07-.13.3-1,1-.39,1.3.36.21,1.58-1.23,1.77-1.44-.47.18-.7.08-.69-.28,1,0,.91-.19,1.74.6.34.32.91,1.36,1.53,1-.22-.87-.09-.75-.54-1.32-.25-.31-1.23.35-.82-.53.68.14,1.59.86,2.26.78a14.19,14.19,0,0,1,.55-3.23c-.49.44-.6,1.37-1.12,1.41,0-.8.22-1.22.26-2.06-.71,0-1.15.73-1.55,1.2,1.44.19-.75,1.23-1,.05-.11-.44.53-.29.22-1s-.44-.51-1.2-.54m35.23,1.63c-.43-.15-.34-1-.46-1.29-.76.31-1.33,3.66-1.34,4.44,2.24.36.19-1.64,1.3-2.64,1,.87-.17.19.63.52,0-.34-.1-.68-.13-1M171,38.35c.44-.41,1.39-1.92,1.07-2.57-.59-1.23-.77.81-.92,1.07-.4.67-1.06.45-1.4,1.06-.51.92.65,1.8,1.39,1.66,0-.27,0-.53,0-.8a.37.37,0,0,1-.36.18c-.26-.23-.17-.43.26-.6M106.09,36c-.08.45.82,4.33,1.18,4.13a12,12,0,0,0-.28-2.21c0-.22-.77-2.59-.9-1.92m68.13,1c0-.58,0-.59-.6-.84a4.54,4.54,0,0,0,.63,2.51c1.35.13.19-.23.54.88,1.27.54,2.18-2.55.13-1.44,0-.53-.65-.61-.7-1.11m-71.55.75a1,1,0,0,0-1,1c.12.65.83.61,1.16.88-.14.75-.73.73-1.12,1.27a6.65,6.65,0,0,0-.74,1.54c-.34,1.46,1.09,1.56,1.55.65.05-.1,0-1,.08-1.18a20.43,20.43,0,0,1,.8-2.06c.13-.39.4-.55.3-1a13.61,13.61,0,0,1-1.08-1.07m62.67,1s.1,1.9.56,1c-.45-.93.31-1.33-.5-2l-.06,1m8.17-.93c-.35-.06-.4,1.39-.33,1.54s1.36,1.15,1.32,1.15c0-.42-.48-2.58-1-2.69m-65.85.26c-.15.39-.21,2.29.54,1.38.26-.32.17-1.9-.54-1.38m10.63.19c0-.29-.44-.22-.44,0s.42.35.44,0m-9.18-.05a2.81,2.81,0,0,0-.69,1.91,2.61,2.61,0,0,0,1.28-2,.47.47,0,0,0-.59.06m60.36,1.18c-.2-.48-.2-1.07-.82-1.3-.18.57-.58.82.07,1.52s1.15.75.75-.22m-10.23-1c-.41.56-.77.27-.5,1.07s1.43.69,1.09,1.51a5.36,5.36,0,0,0,1.38.21,10.17,10.17,0,0,0-.44-1.79c-.42-1-.5-1-1.53-1m6.62.5a6.55,6.55,0,0,0,.85,1.37c.47.64-.15.52.66.79.44.15,1,.06,1.18-.28s-.24-1.59-.55-1.92-2.09-1-2.14,0m-1.05.09c.21,0,.22-.62-.08-.52s-.19.39.08.52m-53.9,2.09c.8-1,.7-3.41-.81-2a4.45,4.45,0,0,0-.68,1.76.81.81,0,0,0,1.49.29m7,.3a7.89,7.89,0,0,0,.94-2.06,1,1,0,0,0-1.58-.51c-1,.63-1.28,3.32.64,2.57M128,39a4.74,4.74,0,0,0-.27,1.57c0,.16.75.11.76.12.09.52-.33.21-.62.51-.63.68-2.21,2.57-.77,2.89-.92.34.56,3.45,1.64,1.43.43.49.84,2,1.19.83.56.93,2.32-.33,2.74-.77.89-1,.6-1.93.11-3a3.23,3.23,0,0,0-2-1.77c-.44-.12-1.43.17-1.79-.11s-.29-2-.95-1.68m35.57.44a.24.24,0,1,0-.29-.28c0,.19.1.28.29.28m-22.91,1c-.41-.31-1.36-1.48-1.9-1.46s-1.64,1.31-1.87,1.73c-.76,1.4.19,2.83.21,4.26s-.5,2.62,1.39,3c2.11.41,2.29-1.23,2.15-2.86-.48.33-.67.93-1.38.79v-.16c1.6,0,1.4-2.78,2-2.9.12.68.58.83,1.09.36s.14-1.2.05-1.62c-.14-.71-.42-1.32-.53-2-.69.68-.52,1-.55,2C140.67,41.49,141.41,40.58,140.69,40.44Zm22.32-1c0-.26-.47-.19-.46,0s.46.32.46,0m-51.39.9c-.24.57-.23,2.61.66,2a4.61,4.61,0,0,0-.11-2.81c-.14,0-.55.86-.55.86M136,39.59c-.75.33-1.86,2.46-1.14,3.26.18.21,1.09.09,1.29-.11s.45-3.15-.15-3.15m28.46.33c.05.87,0,2,.58,2.33C165,41.54,165.43,39.73,164.42,39.92Zm1.44.11c-1,.1-.62,3.75-.65,4.44a4.17,4.17,0,0,1-.87-2c-.15-.64-.1-1.18-.72-1.61a.67.67,0,0,0,.15,1,4,4,0,0,0-2.18,1.86c-.68.92-.74.82-.74,2.08v7.13a5.79,5.79,0,0,0,0,1.38c.1.38.56.64.59,1.05s-.45.89-.54,1.29a15.44,15.44,0,0,0,0,3.26c0,.9-.54,4.06.56,4.23.09-1.47-.28-3.3.06-4.71a.88.88,0,0,1,.53-1l-.32-.34c.1-.62-.32-.41.11-1.21.35-.64.41-.74.79.21a9.08,9.08,0,0,1,.2,2.51c0,1.26.07,2.46.07,3.76a2.69,2.69,0,0,1-.43,1.9c-.46-.17-.68-.12-.65.15v.44a3.7,3.7,0,0,0,0,.94,10.54,10.54,0,0,0,2.75,0,4.71,4.71,0,0,0,1.38-.93c0-.28-.19-.37-.12-.64A5.38,5.38,0,0,0,166,64c.07-1.32,0-2.67,0-4,0-2.82,0-5.63,0-8.45q0-3.93-.1-7.84a4.51,4.51,0,0,1,.09-1.39c.05-.17.48-.61.49-.75,0-.36-.24-1.53-.55-1.5m4.45,0c-.44,0-1,1.16-1.14,1.55a2.67,2.67,0,0,0,0,1.16c.29.8.17.48,1.18.58.07-.51-.38-.44-.51-.82,1.26.35,1.33-2.44.45-2.47m-7.78.46c.23.83.9-.33.69-.26-.05,0-.87-.42-.69.26m-1.05-.38c-.17.58.37.75.1,1.38-.37.85-.73.35-.77,1.49,1.37.48,1.74-3,.67-2.87M114,41.49c-.23.56-1,1.19-1.15,1.7.74.24,1.57-1.31,1.8-1.82.16.25,1.72,2.71,2.08,2.23s-1.87-3-2.23-3.19c-.16.36-.33.72-.5,1.08m58-.71c.08.9,1-.22.73-.17-.09,0-.79-.43-.73.17m-.36.4a.45.45,0,0,0-.19-.48c-.31,0-.32,1.53-.2,1.69.31.43,1.58.68,1.48-.12-.34-.41-.86-.31-1.09-1.09M159,41.64c.28,0,.22-.75-.09-.63s-.19.65.09.63m3.81.21c.28,0,.22-.71,0-.8-.35,0-.32.82,0,.8m-54.45.25c1.2,3.54,1.42-.45,0-.86a.81.81,0,0,0,0,.86m68.41-.8c-.38-.07-.12,1,.42,1,0-.23,0-.91-.42-1m-1.76.05c-.48.41-1.2.3-1.38,1.13,1,.31,1.29-.74,1.76.45.2.51-.24,1.89-.24,2.48,0,1-.35,2.7,1,2.92A2.59,2.59,0,0,0,176.3,47a1.23,1.23,0,0,1-.54-.26c-.07-.52.19-1.35.2-2a1.16,1.16,0,0,0,.36-1,5,5,0,0,1-.5-.71c-.24-1.16,0-1-.86-1.61m-6.83.4c0,.66.69-.13.45-.11-.07,0-.45-.27-.45.11m-9.21.16c-.4.64-.58.64-.72,1.44a21.67,21.67,0,0,0,0,3.12,4.51,4.51,0,0,0,.22,2.26c.29.48-.25.14.3.49a4.8,4.8,0,0,0,1.56,0,13.73,13.73,0,0,0-.07-2.65c-.06-.92,0-1.89,0-2.82,0-1.55.3-1.77-1.34-1.82m7.28.53a16.49,16.49,0,0,0,.29,6.75c.22,0,1.34.11,1.47,0a8.76,8.76,0,0,0,0-2,26.6,26.6,0,0,1,0-3.68c.05-.34.64-.69.08-1.24-.4-.39-1.63-.46-1.8.26m-49.11.12a17,17,0,0,0-.06,2.67c0,.14,0,.73.06.94,0,.5-.08,1.24.21,1.68-.08.63.23.77.93.43.59.25.88.2.85-.13.75-1.1-.31-4.68-.33-5.9-.74,0-.73.38-1.38-.21l-.28.52m-7.35-.27a12.21,12.21,0,0,0-.09,3.72c0,.69-.11,2.33.28,2.88.09,0,.73-.28.86-.3,1.14-.18.62.1.92-.84a14,14,0,0,0,.05-4c0-.74,0-1.18-.62-1.48a3.15,3.15,0,0,0-1.4.06m11.86.33c-1,.5-1.76.82-1.11,2,.29-.31.54-1.32,1.17-.81a2.69,2.69,0,0,1,0,.75c-.49-.07-.75.13-.78.62.17.39.11.68-.17.86s-.24.3,0,.55c.22.43.48.41.77-.06,0,0,.6-.45.82-.17.36.48-.82.52-1.1.87-.82,1,.52,1.67,1.16,2.28a1.61,1.61,0,0,1,.47-.78c-1.31-.58.4-1.75.91-2.14.74-.57,1.36-1,1.39-1.86,0-1.59-2.31-2.64-3.48-2.08m35.15.09a2.37,2.37,0,0,0-1.37-.27,2.84,2.84,0,0,0-2.46,2.11c-.1.87.54,1.33,1.35,1.91,1.82,1.3-.08.34.46,1.87-.94-.21-.69.53.17.58-.57,0,1.54-.78,1.28-.63.43-.25.94-.37,1.08-.94.31-1.2-1.13-1.09-1.92-1.44-.16-.07-1.92-1.54-.88-1.35a1.51,1.51,0,0,1,.36.86l.61.23c-.06,0,1.47.28,1.49.26,1.15-.9-.47-1.53-.55-2.31,0-.06,2-.74.38-.88m-56.19,6c-.64-.68,0-.62,0-1.36,0-.2-.32-.45-.32-.72s.2-.76.21-1.12,0-2.23-.37-2.53c-1-.89-.71.55-.65,1.07a5.3,5.3,0,0,1,0,1.64A11.87,11.87,0,0,0,99,47c0,.41.75,1.44.08,2-.52.43-1.55-.44-1.17-.88,0,.43.77.4.86.05a7.46,7.46,0,0,0-.51-.92c-1.33-.47-.81,2-.44,2.45-1.28,1.11-.62,2.93-.62,4.49,0,.73.08,1.5.12,2.08a3.29,3.29,0,0,0,.09,1.2.59.59,0,0,1,.06.71c.53,0,1.06.06,1.59.07,0-2,0-4,0-6a2.53,2.53,0,0,1,.92,1,1.21,1.21,0,0,1-.08,1,12.26,12.26,0,0,0,.27,2.12,8.11,8.11,0,0,0,0,1.91c.19.55.13.56.6.7.19.06,1,0,1-.27,0-.06-1.9-.21-1.08-.68.13.57,1,.27,1.18,0s.08-.68.12-1a8.8,8.8,0,0,0-.24-2.17c-.09-.92-.14-2.72.68-3.25a5.7,5.7,0,0,1,1.7,0c1.17,0,3.24-.43,4.34,0s.87,1,.85,2.14c0,.47-.06,4.74.29,4.67.57-.12-.17-13.55-.35-13.56-.33,0-.11,5.55-.26,6.1-1.22-.58.77-2.85-1.64-2-.64.23-.34.76-1.17.27s-.44-1-.46-1.7c0-.42,0-1.61-1-1-.7.42-.51,1.45-.75,2.07s-.25,1-1.07.94c0,0-1.26-.77-1.26-.71.39,0,1.07-.2.84-.75-.82-.25-.46-.07-.38-.79s.55-1.22.41-2.11c0-.36-.1-1.55-.87-1.09-.28.17.2,2-.27,2-.31,0-.24-.77-.34-.91-.65.1-.07,3.64-.08,4.19l-.44-.5m57-4.69c0,.35-.16,2.7.21,2.68s.16-3.95-.06-3.88-.15,1-.15,1.2m13.71-.92c-.35.29-.47.17-.61.6,1.43-.1,2.7-.23,4.15-.27C174.76,42.73,171.89,43.09,171.25,43.09Zm-35.48.5c-.6,0-.45-.48-1,.21-.35.45-.31.94.27,1a2.6,2.6,0,0,0,1.27-.83c.43-1-.25-.4-.55-.37m37.62.21c-.51.5,0,1.52.63,1.89.29-.91.41-1.36-.63-1.89m-31.48.48c.31.24.17.4.56.57.18.07.18-.84,0-1l-.52.42m35.5-.4c-.16.6-.67,1.19.33,1.35,0-.62.31-1.18-.33-1.35m-6,0a3.4,3.4,0,0,0-.69,1.43c1,.07,1.05-.42,1.49-1.3l-.8-.13m-2.26,1.55c0,1.72.74.93.64-.34-.14-1.74-.64-1-.64.34m-1.82,20.42c1.2.26,1.73.25,1.89-1.28A14.84,14.84,0,0,0,169,61.2c-.32-2.71.08-5.59-.17-8.35a16.49,16.49,0,0,1-.26-2.91,12.43,12.43,0,0,0,.28-2.76c-.08-.63-.15-1.18-.18-1.72,0,.1.22-1.94-.42-1.31-.55.94-.07,4-.08,5.08,0,1.32.11,2.66.19,3.9.1,1.76.1,3.66.1,5.56a37.65,37.65,0,0,0,.24,4.44c0,.29.23,2.52-.62,2.61s-.69-1.09-.69-1.63c.19.1.46.89.74.83.1,0-.11-6.26-.12-6.73,0-1.7-.05-3.39-.08-5.08,0-.69,0-1.38,0-2.07,0-1.45-.13-1.17-1.5-1.25,0,3,0,5.94,0,8.9,0,1.35,0,2.69,0,4a10.48,10.48,0,0,0,0,2.24c.24,1-.2.68.86.91M106.17,44.64c-.78-.46-2.35-.31-2.73.38a2.34,2.34,0,0,0,0,1.23c.6.7.63-.91.63-.9.4-.3.68-.64,1.27-.5s.38.52.74.75c.1.07.3.84.69.34.19-.25-.35-1.19-.55-1.3m70.65.94c0-.08.11-1.1-.16-1.09s-.27,2,0,2.14a1.15,1.15,0,0,0,.18-1.05m-40.57-1c-.79-.15-.73,1-.08,1.17.88.24.82-1,.08-1.17m-.82,1c-.37-.47-1.74-.2-1.73.43S135.4,46.47,135.43,45.5Zm37.43.1c-1.11-.26-.37,2.76-1.27,3.31s-1.23-.19-1.54-.77a.31.31,0,0,0,.27-.45c.11-.36-.06-.48-.5-.37-.37-.36,0-.29-.69-.4a12.43,12.43,0,0,1,.27,1.78c0,.54-.66.82-.06,1.51.75.86.71.07.91-.07-.11.08-.36-.38-.1-.56s.66.34,1.06.32a.76.76,0,0,0-.3.44c.36.48,1.33.32,1.64,0,.4.2,2.48.24,2.56.42-1.22.74-5-.85-5.79.29.35.42,3-.07,2.75.46a9.58,9.58,0,0,0-2.21,0c-.89.32-.72.13-.71,1.32,0,1.6,0,3.21,0,4.82,1.31-.13.54-.33.88-1.27.14-.38,1.54-1.14,1.55-1.29s-.36-.49-.35-.87c0-.62-.09-.79.36-1.22,1.57-1.49,2.19.77,2.34,1.56,0,.12-.23.52,0,.73s.94.17,1.1.27a2.08,2.08,0,0,1,.59.85c.07.22-.21,1.48.18,1.53.1,0,.94-.25,1.17-.3s1.2.26,1.24-.14c0,0-.69-.61-.72-.65-.75-.93,1.17-.75-.88-1.09,0,.08.5,1.36-.25,1.25a20.24,20.24,0,0,1-.4-2.38,12.27,12.27,0,0,0-.05-2.19c-.31-1.06-.72-.91-1.92-1,.08-.61,1.7-.07,2.24-.77s.09-1.22.11-1.93c-1.35-.06-.07.49-.65,1A1.38,1.38,0,0,1,174,50c.7-.54,1.15-.57,1.49-1.42-.28,0-.81.3-.85.29-.1.28-.27.36-.5.25s-.34-.11-.2-.4a3.18,3.18,0,0,1-1.13-1.55c.88,0,.79-1.37.08-1.55m4.32.76c0,.26-.08.53-.13.79.71,0,.89.1,1.39-.52-.85-.44-.2-.06-.44-.61a.67.67,0,0,0-.82.34m-46.61,1.15c.15.84.9-.27.65-.21-.06,0-.76-.39-.65.21m48.56.48.67,0a4.16,4.16,0,0,0-.65-.61l0,.63m-58.7.27c-.83,1.1-.17,4.26-.16,5.58,0,2.48,0,5,0,7.45,0,5,0,10,0,14.95a29.45,29.45,0,0,0,.23,4.26,24.73,24.73,0,0,1-.09,7c-.13.62-.22.39-.22.9s.09,1.5.09,2.18a9.92,9.92,0,0,0,.3,3.77c-.62.31-.3,2.66.23,2.39,0-9.58.35-19.23,0-28.8,0-1-.12-2.14-.2-3.24-.11-1.61.19-2.93.09-4.55-.13-2.33-.17-4.66-.19-7,0-1.26.05-2.54,0-3.79,0,0,0-1.33-.18-1.09m37.11.07c-.26-.2-.54.85-.08.89.22-.07.24-.77.08-.89m21,.87c.83,0,.57.86,1.2.93C179.91,49.18,178.68,48.26,178.58,49.2Zm-22.73.32c.52,0,.45.16.87.29a1,1,0,0,0-1.06-.94l.19.65m-46.18-.19c0,.35,2.42.24,2.42,0s-2.44-.33-2.42,0m67.34.21c.05.06.88,1.65,1.13.92.07-.23-.38-.63-.4-1l-.73,0m-18.52.32c0,3.47.23,7.5,0,10.61a6,6,0,0,1,.3.56,2.62,2.62,0,0,1-.29.58c.05.69.21,1.1.28,1.72s-.34,1.49.24,1.57.22-.76.78-.83c.24.14,0,1.33.6,1.15.34-.11.19-1.77.19-2.08,0-2.28-.06-4.57-.05-6.85,0-1.51.62-4.46,0-5.83-.32-.67-.37-.55-1-.66-.1,0-1.05,0-1,.06m-48.54,0v7.22c0,1-.07,2.07,0,3.09a10.6,10.6,0,0,1,0,1.69c-.08,1.07-.34,3,.29,3.76-1.56,1.21-.2-1.46-1.09-1.3-.68.1.12,2.05.74,2.17a6,6,0,0,1,1.25-.56c.61,0,.34.7,1,.27.49-.32.14-1.49.1-1.79,0-.5-.1-1.48-.1-2.21,0-2.48-.17-4.76-.06-7,0-.43-.42-5.34-.48-5.35-.26,0,0,.7-.45.54-.86-.35.52-.65-1.18-.49m12.26.35c0-.31-.56-.24-.56,0s.55.41.56,0m35,1.32c0,4.1,0,8.19,0,12.29,0,1.84,0,3.68,0,5.52,0,1.48.35,2.71.35,4.13,0,1.91-.47,16.41.17,16.46.36,0,.3-7.57.27-8.06-.19-3.08,0-6.23,0-9.32,0-1.34-.28-3.08.26-4.2.45-.93,1.15-.83,1.76-1.41-.22-1.33-1.69.3-2.3.31.24-1.14.19-1.41,1.4-1.2.08,0,.28-.17.43-.15s.44.34.6.35a1.16,1.16,0,0,0,1.4-1.2c-.5-.68-.64.53-.89.54-.84,0-.49,0-.95-.65-1,0-.54.92-1.49.11-.33-.28-.4-1-.48-1.51a22.5,22.5,0,0,1,.23-6.25c.22-1.65-.28-2.87-.24-4.35,0-.48.36-2.43-.18-2.94-.51.06-.29,1.24-.29,1.53m21.31-.75c.05.63.8,0,.84,0s-.87-.65-.84,0m-46.31,2.74c-.2-.48-.41-2.79-1.07-2.89s-2.11,5.84-1.95,6.5A7.09,7.09,0,0,0,131,60.21c1.68,1.25,1.45-.64,1.77-1.59s1-.53-.25-1.37c-.31-.2-1.73-.52-1.75-.75-.12-1.5,2.76,1.37,1.1-1.41,1.06,0,.59-.92.34-1.57m44.34-2.3a6.39,6.39,0,0,0,.07,4.1c.9-.29.77-.5.78-1.52,0-.83-.1-2.53-.85-2.58m2.87,1.25v3c0,.7.05,3.1.7,1.44a10.48,10.48,0,0,0,0-3,11.63,11.63,0,0,0,0-1.32c-.1-.9-.71-1.64-.71-.2M178,52.24c.15.56,1.48.23.93-.43-.28-.33-1,0-.93.43m-68.86,4.43c0-.91.55-3.66,0-4.43-.64-.94-3.51-.54-4.55-.47a4,4,0,0,0-1.79.27c-.73.5-.47.49-.53,1.48,0,.4-.43,4.16.31,4.18.19-.24.2-.76.36-1,.33-.6.67-.59,1.15-1.11.67-.73.22-.05.35-.78s-.34-1.22.69-1.64a1.46,1.46,0,0,1,1.82.67c.25.57-.48,1.29-.3,1.66s.9.26,1.19.57c.53.58.17,1.86,1.17,2a3.48,3.48,0,0,0,.11-1.36M151,53.48l-.29.15c.3.68.76-.26.71-.59-.31-.21-.37.28-.42.44m26.93.78c.25,0,.22-.79-.06-.72s-.24.76.06.72M148.22,54c-.51-1.15-1.58,1.12-.82,1.14.36,0,0-.78.21-.93.31.08,0,.62.38.65s.31-.66.23-.86m1.65.53c.21,0,.24-.5-.08-.4s-.17.32.08.4m32,.42c-.21-.62-1.52-.81-1.26.13.2.77,1.51.67,1.26-.13m-35.28,2.83c.14,1,4.35,1.06,4-1-.06-.32-1.06-2.12-1.48-2.14-1-.06.27,1.25.25,1.38-.11.59-2.92-.72-3.19-.72-.83.92,1.19,2,1.14,2.19-.12.4-.77-.45-.68.25M151,55.7c.94.32.23-.85.27-1,0,.1-1,.51-.27,1m26.85,5c1.3.51,2.56.61,3.62-.51.48-.51,1.47-3.08.17-3-.53,0-.26,2.45-2.19,2.19-.58-.07-1-.53-1.42-.44s-.83.75-1.48.82a2.29,2.29,0,0,0,1.3,1m-3.63-3.08c-.05,2.16.66,4.19.63,6.37,0,2,0,4,0,6a30.24,30.24,0,0,1-1,6c-.37,2-.84,4-1.09,6a9.62,9.62,0,0,1-.36,2.22c-.15.42-1.17,1.69-.88,2.18,2.16.25,3.56-12.79,3.67-14.48.17-2.66.26-5.29.28-8a23.88,23.88,0,0,0-.27-2.87,16.48,16.48,0,0,0,0-1.86,5.4,5.4,0,0,1-.34-1.67l-.67,0m5.6.82a2.71,2.71,0,0,0-.9-.29c.2,1,1.94.8,1.65,0a1,1,0,0,0-.75.33m-10.31-.25c-.37.65-.3.95.23.9.05-.66.21-.38.37-1l-.6.06m8,.46c0-.61-1.67-.86-1.58-.16.1.85,1.58.49,1.58.16m-79.24.17c.3.05.28-.5,0-.42s-.19.28,0,.42M133,58.61a.44.44,0,0,0,.11.51c.18,0,.87-.41.73-.65a1.28,1.28,0,0,0-.84.14m-29.72.93c.53,0,0-.74,0-.75s-.66.77,0,.75m5.41-.5c.17.22.34.23.53,0,.11-.43-.61-.4-.53,0m26.72.85-.5-.52c-.46.05.91,2.92.5.52m-2.47,0c.1.13,1,.29.76-.16a.51.51,0,0,0-.76.16M103.05,60c-1,1.15-.58,4.69-.56,6.08a65.62,65.62,0,0,0,.57,7.54A53.46,53.46,0,0,0,104.41,81c.17.61,1.63,6.39,2.18,6.33.19,0-1.58-6.31-1.72-6.89a69.48,69.48,0,0,1-1.43-8.5,46,46,0,0,1-.17-7.24c0-1.08.14-2.18.12-3.27,0,0,0-1.88-.34-1.47m30.83,1c-1,.27,1.14,1.4.36-.49-.28,0-.4.19-.36.49m15,0c-1,.47.68,2.92,0,3.66-.41-.11.09-1.48-.3-1.48s-.55,2.54-.58,2.8c-.86-.15.76-7.06-.6-3.77-.69,1.69-.55,4.25-.83,6a33.32,33.32,0,0,0-.84,5.12c.43,0,.58-.53,1-.8s1.35-.54,1.76-1,.56-.7.27-1.3c-.29-.06-.43.53-.48.69-.22-.63.23-.59-.48-.77,0-.44,1-4.27.9-4.3a.85.85,0,0,0,.08.52c.47.17.26-1.28.32-1.49.92.28-.69,3.17.84,3.12-.31-.57-.45-7.12-1.05-7m28.81,2.87c.74-.08,3.5,0,4.07-.44a1,1,0,0,0-.15-1.83,17.87,17.87,0,0,0-4.1.36c-.89.26-1.07-.12-1,1s.25,1,1.23.94m-77-1.62a4.82,4.82,0,0,1-2.25.31c-.5,0-2.6-.38-2.74-.32-.59.26-.6,1.67-.1,2.07.92.74,3-.31,4.08-.21.49,0,1.18.53,1.67.16.7-.52.63-2.52-.66-2m34.13,1.56c-1-2.39-1.41,2.39-1.48,3-.27,2.21-.63,4.41-.9,6.61-.07.58-.34,3.81.66,3,.15-.12-.26-.65.29-1.07s1.22.28,1.6.2c-.38.08.74-2,.69-1.84a14.89,14.89,0,0,0,.13-5c-.05-.39-.31-.77-.38-1.21,0-.13.32-.39.27-.69a.76.76,0,0,1-.27-.88l-.52-.13c-.22-.85.31-1-.09-1.9m8.89-.68c0,.1-.2,1,.19,1s.39-1.25-.19-1M182.17,66a.77.77,0,0,0,.25-1c-.36-.61-.52-.13-1,0s-1.14,1.12-1.62,1-.35-.76-.64-.89c-.87-.38-1.71-.64-2.5.18-.52.54-.87,2.51-.4,3.14s5.58.51,6.07,0c1.14-1.28-1.17-.63-1.46-.94-.75-.79.87-1.18,1.32-1.54m-80.69,0a.57.57,0,0,0-.19-.56,27.65,27.65,0,0,0-3.21.25H96.93c-.54,0-1.28-.3-1.63-.29s-.26,1.71-.22,1.84c.33.93.51.47,1.38.4a6.45,6.45,0,0,1,2.28-.15c.47.16,1.72.92,1.19,1.68-.84,1.19-3.25-1.46-4.34-.8-.73.45-.7,2.45.17,2.41.36-1-.43-1.68,1-1.19,1.18.41,1.93,1.51,3.4,1.09s1.33-1.27,1.32-2.41c0-.11-.29-.53-.3-.68s.34-1.15.34-1.59m66.71,1.47c.62,1.89.41,20.83.52,20.81.57-.07.23-12,.22-13.26s0-2.52,0-3.79a14.21,14.21,0,0,0,0-3.51,1.7,1.7,0,0,0-3.29-.2,4.75,4.75,0,0,0-2.36-.54,7.44,7.44,0,0,0-2.25.12c-.51.49-.15,2.55-.16,3.26,0,1.51-.15,3-.05,4.56.2,2.75.38,5.47.37,8.26,0,.91-.72,7.05.55,7.18.62-3.35.22-7.61,0-11-.15-2.1-.52-5.06.78-6.86a10.56,10.56,0,0,1,.42,2.62,10.16,10.16,0,0,0,.07,2.7,52.68,52.68,0,0,1,0,6.88,16.93,16.93,0,0,1,0,3.56c.24.59.14.84-.3.77s-.38,0-.27.31c.05.87-.2.63.62.92,1.2.42,1.37-.29,1.11-1.21-.08-.3-.37-.36-.43-.72a10.35,10.35,0,0,1,0-1.76c0-2.39.14-4.86-.06-7.26-.18-2-.36-5,.71-6.83.94,1.7.44,3.81.44,5.81,0,4,0,8,0,12,1.18-.1.67-1.68.67-2.72s0-1.8,0-2.71c0-2.11,0-4.23,0-6.34,0-3.18.6-6.87.08-10a.56.56,0,0,0,.38.21c.3-.52.12-1.2.72-1.6s1.47-.37,1.69.32m-50.45-.86c-.55.56-.81-.12-1.42-.29a12.16,12.16,0,0,0-3.4.1l.4.59c.49-.17,4.37-.61,3.25.52a17.92,17.92,0,0,0-2.83-.12c-.86.34-.81-.29-.8,1.32,0,1.23,0,2.46,0,3.7,0,1.7-.1,3.64-.12,5.16,0,1.85.3,3.8.31,5.71s-.25,3.62-.25,5.4a3.65,3.65,0,0,1-.3,1.24c-.47-.07-.57.2-.31.82v.8c0,.52,0,1.06,0,1.58a35.1,35.1,0,0,0-.55,4.49c1.45-.55.9-2.89.91-4,0-.75-.28-2.35,0-3,.06-.1.73.1.8,0a5.58,5.58,0,0,0,0-1.78c0-.58,0-1.19,0-1.77,0-.39.31-1,.31-1.34,0-.55-.3-1.26-.3-1.93V81c0-.85.25-1.58.27-2.32s-.45-1.34-.27-2.1c.07-.34.45-.68.49-1,.11-.78-.25-1.46.08-2.3.13-.32.47,0,.59-.4.07-.24-.22-.62-.25-.91-.07-.75-.22-2.47.66-2.89a3.61,3.61,0,0,1,.32,3.52c-.25.55-.64.9-.7,1.46s.17,1.41.15,2c0,1.76,0,3.92,0,5.85,0,1.57,0,3.14,0,4.71a10.36,10.36,0,0,1,0,2.08l-.55.08c0,.5,0,1,0,1.49,1.11,0,1.72.38,1.77-.86,0-1-.37-.64-.53-1.41-.28-1.37.23-2.91,0-4.31s-.1-2.81-.28-4.17a13.58,13.58,0,0,1,.11-2.85c.05-.62-.08-1.36,0-1.84s0-2,.71-1.06c.45.54,0,1.08,0,1.58,0,.73.23,2,.27,3,0,.64.28,1.19.3,1.7s-.29.81-.28,1.28.32.73.32,1.06-.34.34-.34.61c0,.46,0,.91,0,1.37,0,1,.22,1.88.29,2.8,0,.54,0,1.13,0,1.67s-.35,1.48-.29,1.75a2.15,2.15,0,0,0,.67,0q0-5.92,0-11.85c0-1.83,0-3.65,0-5.47a11.87,11.87,0,0,0,0-2.73c-.54-2-.06-.47-.78-.09a9.16,9.16,0,0,1-.9-2.54,6.9,6.9,0,0,0,1.2,0c.35-.1.72-.57,1-.63,1.37-.3,1.73.71,1.8,1.94s0,8.49.55,8.59c.41-1.92.06-4.32.08-6.29a18.06,18.06,0,0,0-.15-2,10.32,10.32,0,0,0-.16-2.18c-.17-.34-1-.74-1.37-1a.56.56,0,0,1-.61.31m-5.65.61a2,2,0,0,0-1.93-.57c-1.07.38-.81,1-.82,2,0,2.19-.38,4.7,0,6.86a70,70,0,0,1,.31,10.7,20.24,20.24,0,0,1,0,3.34c-.7.28-.37-.11-.46-.4a11,11,0,0,1,0-2.75V84.23a1.09,1.09,0,0,1-.38-.36,1.6,1.6,0,0,1,.36-.46c0-.63,0-1.27,0-1.9,0-1.22.58-2.89.22-4.09s-.62,0-.92.75c-.43,1-1.05,2-1.57,3-.28.54-.91,1.26-.52,1.9.22.35,1,.15,1.33.43.78.65.82,2.34.82,3.29v4.73c0,1,0,1.94,0,2.9,0,.65-.38,1.88-.27,2.26,1.06.32,1.08-.8,1.15-1.57a24.13,24.13,0,0,0,.31-3.09,13.52,13.52,0,0,1,.36-2.5,34.32,34.32,0,0,0,0-4.42c0-3.26.17-6.56-.06-9.81a69.54,69.54,0,0,1-.19-7.65c.55,0,.64-.54,1.22-.54s.84.85,1.4.81a.51.51,0,0,0-.27-.63m36.67-.12c0,.14-.12,1.39.19,1.36s.2-1.47,0-1.55l-.21.19m19.45,11.4c0-2.14-.21-4.39-.25-6.5,0-.94.61-4.83-1.09-4.43-1,.24-.84,2.81-.8,3.57,0,.4.17,1,.18,1.29s-.14.34-.13.68c0,2.44.29,4.65.29,7.06,0,1.57,0,3.14,0,4.72a11.08,11.08,0,0,0,0,2.51c.45,1.64-.31.48.47.82,1.54.67,1.32-.56,1.32-1.52Zm-7.38,1.52c0-1.59-.58-2.84-.56-4.43,0-2.09.14-4.2,0-6.28,0-1,.05-2.14-1.19-1.44-.85.49-.7,1.44-.71,2.26v2.22c0,2.19,0,4.37,0,6.56,0,1.35.35,2.39.34,3.75s0,2.66,0,4c0,.26-.16,1.35,0,1.53a10.62,10.62,0,0,0,2.05.06V80.05M111.2,67.65c-2,0-1,7.23-1,8.55,0,2.79,0,5.38.3,8.07,0,0,0,.91,0,1,0,.47-.06,1-.08,1.34s-.45,1-.12,1.32a13.65,13.65,0,0,0,2,0c.23-.25,0-2,0-2.33V74.33c0-1,.76-6.72-1.12-6.68M119.48,79c0-2.73-.36-5.62-.4-8.46,0-.52.35-3.26-1-2.69-.47.2-.77,1.32-.79,1.84s.09,1.12.06,1.82c-.07,1.65,0,3.32,0,5,0,3.84,0,7.68,0,11.52l1.34,0c.7.18.91-.1.65-.82a9.33,9.33,0,0,0,0-2.42c0-1.9,0-3.8,0-5.7m58.28-9.77a1.6,1.6,0,0,0-1.52,1.41,11.23,11.23,0,0,0,0,2.46c.25.32,5.4.66,5.7.43.75-.6.72-3.13.08-3.76-1.11-1.09-1.73.1-2.7.61a1.55,1.55,0,0,0-1.56-1.15m-29.1.75c.2-.07.25-.2.17-.4-.24-.38-.69.44-.17.4m-7.19,2.87c.74.11,3.12-.92,2.6-2.06-.08-.17-1.79,1.18-1.9,1.23s-.89-.12-1,.11-.17.66.29.72m-40.32,1.74c1,0,.88-1.28.54-2.22a1.94,1.94,0,0,0-2.21-1.3c-1,.27-1.48,2.35-2.61,2.31s.09-2.17-1.13-1.6c-1.41.66.52,5.83,2.75,2.38.34-.53.84-2.46,1.82-1.72,1.3,1-1.42,2.15.84,2.15m27.22-1.34c1.16-.76-2.63-.68-3.07-.69-1,0-1.17-.29-1.43.45,0,.09.51.46.52.6s-.51.32-.52.59c0,.77.4.9-.05,1.67s-1,1-1.31,1.88c-.34,1.05-.42,3.13.22,4a1.42,1.42,0,0,1,.53-.31,2.93,2.93,0,0,1-.27,1.71c-.14.33-.54,0-.72.23,0,.92,4.1.57,4.59.57.92,0,1.42-.14,1.75.71.06.16-.19,1.72.2,1.68S129,85,129,85c.15-.78-.53-.66.35-1.33.73.61,1.38.84,2.19.13s.54-.73.06-.88c-1-.3-3.14.32-4,.39-1,.09-.13-2.58,0-3a1.37,1.37,0,0,1-.27-.42,1,1,0,0,1,.46-.5c0-.56-.07-.3-.34-1,1.18-.13.5-.12.46-.84.83-.27-.52-1.53-.54-2.3a3.73,3.73,0,0,1,.92-2m14.38.09c.59-.1-.14-.6-.13-.53s-.46.62.13.53m5.26-.55c-.32.38-.4,1.91,0,2.21A2.31,2.31,0,0,0,148,72.78ZM149,74.1s.05-1.35-.34-1.17c-.23.35-.37,1.67.09,1.95a1.08,1.08,0,0,0,.25-.78m-3.21-.35c0,.4,1.3,1,1.62.75,0-.57-1.2-.88-1.62-.75m33.74.54c-.7-.38-2.85-.89-3.41,0-.45.71.15,1,.18,1.61.4.28.37.51-.08.7a2.34,2.34,0,0,0-.52.61c-.56,1.09-.07,1.58,1,2.06,1.67.72,2.27-.33,3.82-.33.17.18-.18.85.13.93,1.15.3,1.71-5.39,1.13-5.37-.33,0-.12.88-.54.91s-1.22-.82-1.73-1.1m-77.81.84a8.36,8.36,0,0,0-2.26.64c-.82.22-2.17-.12-2.89.25a1.24,1.24,0,0,0-.46,1.52c.27.46,1,.35,1.58.25a27.63,27.63,0,0,0,3.73-.62c.84-.28.9.07.9-1,0-.69.17-1-.6-1m69.2,8.45c.43,0,1,.63,1.39,0,.29-.49-.54-1.91-.71-2.34s-1.92-4.56-2.08-4.44c-.7.47-.07,5.77-.07,6.67,0,2.48,0,5,0,7.45,0,1.21.23,2.12.3,3.25,0,.71-.43,2.55.48,2.58,0-1.56-.78-13.14.71-13.12m-16.74-3.92c.13-.89,2.38-1.16,2.37-1.6,0-1-5.17-1-5.81-.67-2.29,1.11-1.37,4.63-1.32,6.77.7.21,1.43-1.14,2-1.5.93-.62,2.2-.5,3-1,.18-.11,1.51-1.4,1.5-1.42-.21-.52-1.37.35-1.62.43a1.56,1.56,0,0,1-.12-1m-21-1a3.63,3.63,0,0,0-.09,1.64c.37.78.19.09.78,0,.08,0,.52-1,.65-.16.06.34-.37.65-.57.91s-1,.88-1.16,1.23a3.06,3.06,0,0,0-.09.78c-.26.53-.85,1.36-1.2,2a11.94,11.94,0,0,0-1.09,2.9c-.07.33-.15.68-.17.87,0-.06.39.22.35.55-.12.9-1.83,1.64-1.62,2.7.25,1.3,2.48.68,2.89,1.58-.43.42-1.84-.39-2.46-.27a4.06,4.06,0,0,0-2.26,2c1,.93,2.65-.33,3.58-.48,1.62-.27,2.27,1.16,3.57,1.57,1,.33,2.25-.28,3.2-.79.34-.19,1-.88,1.43-.9.87,0,.65.61,1.3.64.61-.54,0-1-.34-1.31s-1.22-.35-1.4-.85.36-.75.54-1.07A7.19,7.19,0,0,1,140.61,90c-.1.08,1.55-.07.6-.9a2.35,2.35,0,0,1-.43.19,6.41,6.41,0,0,1,.35-2.2c.22-.87.71-1.26.78-2.08a2.78,2.78,0,0,1-.8.55c-.25-.6.81-1.92.17-2.73s-1,.39-1.26,1.08c-1.12,3.34-2.19,6.71-3.17,10.1-.26.9-.91,2.73-2,1.33-.32-.43.13-1-.13-1.42s-.72-.39-1.13-.67-.65-.06-.73-.67c0-.07.31-.51.48-.51.32,0,.47.88.85,1,.82.28.81-.07,1.3-.66a23.57,23.57,0,0,0,4-8.27c.19-.65.86-2.74-.25-2.48-.75.19-1.36,2.76-1.63,3.43a34.33,34.33,0,0,1-1.91,4,4.31,4.31,0,0,1-1.08,1.52c-.59.37-1.08,0-1.58.29s-.49.68-.9.84c0,0-1.13-.16-1,0-.44-.39.1-2.77,1-2.52.08.41-.54,1.18-.59,1.62a2.22,2.22,0,0,0,.92-.49.59.59,0,0,0,.56.23c.14-.24-.1-.87,0-1s.57-.31.82-.53a8.73,8.73,0,0,0,1.91-1.88c.56-.86.88-1.84,1.35-2.74.29-.55,1.43-1.77,1.4-2.35,0-.36-.53-.58-1-.81a5.26,5.26,0,0,1-2.18-1.59c-.65-.83-1.55-3.38-2.3-1m-30.66,0c-2.76-2.3-8.29,1.46-5.2,4.06a2,2,0,0,0,3.23-1.08c.23-1.74-2.56-2.17-2.31-.94.12.57,1,.25,1.18.67.32.65-.24.87-.79.86-1.8,0-1.44-2.39-.06-2.87a3,3,0,0,1,2,.16c.73.41.6,1.22,1,1.68,1.66,1.74,2.06-1.57.89-2.54M177,80.27c-.76-.23-2.72-1.16-2.2.71.27,1,2.3.79,3.25,1s2.08,1.27,2.6.31c.79-1.48-2.69-1.77-3.65-2m-29.74-.4c-.21.56-.71.62-1.07,1.1.19-.25-.37.94-.35.8-.1.63-.42,4.34-.17,4.51.62-.65.79-1.24,1.64-1.69,1.13-.6,1.44,0,1.53-1.42a27.16,27.16,0,0,0-.47-2.82c-.26,0-.21.7-.33.84-.22-.24,0-1.89-.78-1.32m-27.12,1.55c-.2.49-.36,1.91.06,2.35A3.12,3.12,0,0,0,120.11,81.42Zm30.05,8.44c.09.54,2.86-2.16,3.11-2.45a5.62,5.62,0,0,0,1.73-4c-.05-1.71-.69-1.17-1.86-.73-.94.35-1.11.26-1.64,1.27-.38.72-.92,1.26-.12,1.42-.58.29-.4.77-.57,1.28-.25,0-.35.18-.31.39a.41.41,0,0,0,.25.45c-.17.38-1.56,1.41-1.45,1.86.21.13,1.52-1.37,1.6-1s-.78,1.2-.74,1.51m-50-2.43c1.16.2,3.63.3,4.25-1.09.47-1-.4-1.17-.66-2.06-.39-1.32.5-1.41-.89-1.35a10.06,10.06,0,0,0-2.39.81,12.68,12.68,0,0,0-1.85.4c-.52.32-.71-.09-.73.82s.3.84,1,.86c1,0,3.1-1.85,3.85-1,1.22,1.4-1.66,1.39-2.21,1.4-.7,0-1.69-.17-2,.69-.22.61.24,1.7,1,1.72.48-.43-.18-.92-.17-1.37a1.24,1.24,0,0,1,.8.17m77.46-4.11A2.85,2.85,0,0,0,174.7,83c-1,.63-.87,2-1.42,2.89.56.63,5.21,2.23,5.57,2,2-1.14-1.89-2.09-2.43-2.28s-1.6-.33-1.36-1.18c.18-.62,1.14-.54,1.58-.42.81.23,1.47,1.66,2.27,1.67a1.43,1.43,0,0,0,1.1-1.75c-.56,0-.71.51-1,.82a9.2,9.2,0,0,0-1.4-1.39m-22.05-.56c.34,2.88-2.21,4.4-3.06,6.64a.44.44,0,0,0-.44-.23c0,.58-1,.92-.94,1.53.09,1,1.55-.61,1.64-.71a20.89,20.89,0,0,0,2.35-3.1,4.74,4.74,0,0,0,.77-4.2l-.32.07m-12.7.56c0,1.91-.77,3.67-.92,5.54-.12,1.48-.19,2.8-.3,4.33-.07,1-.47,2.35-1.55,2.67-.5.15-.94-.11-1.44.13-1,.48-.46.53-.61,1.36a9.65,9.65,0,0,0-3.36-.39,4.71,4.71,0,0,0-1.75.35c-.16.06-1.29.78-1.35.46-.13-.83,2.63-1.7.17-2.46-1.11-.34-1.6.15-1.32,1.24.12.46.92,1.14.92,1.51-.41.27-.95-.69-1.11-1-.48-.83,0-.71-.71-1-1.21-.48-2.26,1.26-2.81,0-.25-.61.29-1.28.76-1.77.68-.72,1-.7,1.18-1.62.12-.57-.35-.33.05-1.23.13-.3,1.22-1.43,1.09-1.66-.36-.67-7.11,2.54-7.88.63.67-.72,2,0,2.73-.73s.7-1.88-.53-1.37c0,.5.72.46-.15.68a3.32,3.32,0,0,1-1-.32.63.63,0,0,0,.63-.36c-.61-1.1-1.85,1.07-1.8-1.23-.91,0-.57.77-.57,1.59s0,1.56,0,2.35c0,1.31.17,2.54.17,3.89,0,.53.23,1.78-.17,2.16s-.75.14-1.17.33c-1,.46-1.41,1.24-2.71,1-.23,0-.67.08-.87,0s.1-.69,0-.77a4.81,4.81,0,0,0-2.23-.3c-1.53,0-2.17.88-3.74.88a2.82,2.82,0,0,1-.87,0c-.41-.17-.27-.32-.5-.45s0-.26-.33-.41a2.38,2.38,0,0,0-.84,0c-.39.16-.84.88-1.14,1.19s-.8.08-.66.69c.08.31,1.86.15,2.27.15h60.21c.91,0,2.42.29,3.19-.4a3.79,3.79,0,0,0-1-1.35c-1.61-1.09-.61.52-1.18.76a5,5,0,0,1-2.81-.25c-1.28-.44-3-1.39-4.51-.79,0,.35,0,.71-.08,1.06-.52,0-1,0-1.56,0a3.4,3.4,0,0,1-2.47-.62c-1.34-.89-1.06-3.38-.91-5,.07-.7.86-2,.17-2.67-1.21-1.17-1,1.69-1.24,1.92-.8-.88-1.1-.22-2.13-.24-.73,0-1.28-.38-2.09.22-.29-.51-1.31.14-1.92.24-.9.13-1.34-.22-1.35.9.47,0,.65.17.52.62v.47c0-.21-.44,1.35-.27,1.15A9.22,9.22,0,0,1,146,96.62c-1,.21-2.14-.31-3.22-.23-.34,0-4.37.85-4.34.45,1.55-.45,3.07-1,3.8-2.57.61-1.34.14-3,.41-4.45.18-1,.37-1.75.45-2.46.14-1.29.18-2.7.41-4.07l-.63,0M123,85.42c-.11-.47,0-.9-.66-1-.11.15.25,1.22.24,1.49-.52-.55-.92.43-.1.62s.61-.61.52-1.06m.83-1c0,.32-.17,1.11,0,1.35s.74.07,1,.16l.69.06c.36-.07.49.09.38.48.69.19,2.63.25,1.78-.67a1.12,1.12,0,0,0,.46-.84c-.56-.29-.95-.19-1.17.29-.07.27-.22.38-.45.34-.43-.1-1,0-.94-.77.63,0,1.28.22,1.45-.45-1.08,0-2.15,0-3.23,0m-3.69,2.22a1.07,1.07,0,0,0,0-1.22c-.25.18-.29,1.06,0,1.22m30.14-.84c0-.29-.65-.26-.71,0s.74.49.71,0m-6.37.38c.37.12.48,0,.32-.27-.25-.09-.36,0-.32.27m3.79.39c.62,0-.06-.76-.06-.69s-.48.71.06.69m-3.58.17a.39.39,0,0,0-.31.29c.39.39,1-.51,1-.79l-.69.5M130,86.47c-.25.07-.41.21-.67.27a10.9,10.9,0,0,1-2.22,0c-1,0-2.1,0-3.15,0a5.45,5.45,0,0,0-1.12.17c-.3.94,1.45.24,2,.46,1.14.45.38,1.57.86,2.6.85.27.17-2.36.17-2.35.83-1.28,2.27,1.16,2.74,1.15,0-.45-.3-1.33.22-1.65s.62.31,1,.17.94-1.1.17-.86m15.57.31c-.36.71,1.53,1.78,1.84,1.43.49-.56-1.78-1.45-1.84-1.43m2.22.63c.51,0-.06-.8-.21-.34a.25.25,0,0,0,.21.34m-42.6.32c-.37-.91-5.69,1.21-5.71,2.29,0,1.74,2.33,0,3.12-.35a18.41,18.41,0,0,0,2-.68c.94-.51,1-.21.57-1.26m66.94,1.92c.23,3.13,6.41,3.95,5.78.35-.46-2.59-6-3.76-5.78-.35M144.7,88c.24,0,.32-.16.24-.38s-.66.32-.24.38m-.84.31a.28.28,0,0,0,.16-.42c-.24-.36-.7.47-.16.42m5.44.46a.69.69,0,0,0,.36-.54c-.09-.3-1.3.63-.9.88a.92.92,0,0,0,.54-.34m-4.6.51c.09-.08.77-1,.35-1.07-.19,0-.86.94-.86,1.15a.5.5,0,0,0,.51-.08m-34.23-.82a.94.94,0,0,0,1.62.79C112.88,88.27,110.84,88.5,110.47,88.5Zm7.17.86c.26,0,2.52.11,1.53-.86C118.58,87.92,117.38,88.48,117.64,89.36Zm41.14,1.34c-.17-.52.29-1.94-.42-2.2-.11,0-.22,5-.22,5.39,0,.78-.32,2.32,0,3s1,.69,1.78.76a9.61,9.61,0,0,0-.4-2.89c-.4-1.34-.33-2.87-.73-4.09m-14.92-2a1.1,1.1,0,0,0-.53.63c.48.2.7-.42.9-.69l-.37.06m23.43.71c.31.09,1.87-.13,1-.66-.58-.36-1.75.46-1,.66m-8-.33c0,.45,1.19.43,1.28.08.16-.61-1.29-.54-1.28-.08m6.6,7.9c1.27.08,1.51,1.42,1.51-.61,0-1.14-.43-1.35-.68-2.35-.33-1.38.84-4.58-.85-4.94,0,2.63,0,5.26,0,7.9M144.5,90a.81.81,0,0,0-.29.65,1.76,1.76,0,0,0,1-1.2.82.82,0,0,0-.74.55m-43.17,1.38c-.73.14-1.32.28-.92,1.16s1.28.17,1.7,1-.62,1.07-.36,1.81c.32.9.77.62,1.36.33a21,21,0,0,0,3-2.42c.7-.54,1.06-.69,1-1.53-.06-.46-.84-2.1-1.36-2.22-1.37-.29-.36,1.07-.42,1.52-1.29.21-2.62.09-3.92.33M149.14,90c.27.36.79-.35.8-.55a1.15,1.15,0,0,0-.8.55m-29.45-.21c.11,1-.33,1.86-.31,3,0,1.66-.35,3.12-.27,4.78,1.26-.61.91-1.48.92-2.75,0-1.7,0-3.4,0-5.09l-.36.06m-9.47.19c-.54.18.5.87,1.11.64,1.27-.48-.55-.63-1.11-.64m33.41.42a.24.24,0,0,0,.13-.38.25.25,0,0,0-.39.14.29.29,0,0,0,.26.24m15.61-.07c0,.45,1.43.36,1.38,0s-1.42-.48-1.38,0m8.09,0c0,.5,2,.37,1.43-.24-.22-.23-1.46-.2-1.43.24M117.68,90c-.68.23,1.68,1.45,1.47.29C119.05,89.79,118.23,90,117.68,90Zm36.85.38c-.24-.32-.81.27-.86.48-.1.49,1.09.46.86-.48m7.14.48a19.81,19.81,0,0,0,.35,3.82,13.14,13.14,0,0,0,.26,2,7.69,7.69,0,0,0,2.58,0c.75-.38.36-3.53.35-4.57,0-1.37,0-1.27-1.31-1.29a17.55,17.55,0,0,0-2.23,0M140,91.71a.79.79,0,0,0-.15,1c.62-.07,1.28-1.55.88-1.82a1.08,1.08,0,0,0-.73.86m-29.76-.59c0,.6,0,1.2,0,1.8,1.06,0,1.46.31,1.49-.9S111.32,91.12,110.24,91.12Zm3,.09c0,.82-.49,5,0,5.51a6.32,6.32,0,0,0,2.4.08c.8.25,1.07,0,.8-.82,0-.4,0-.79,0-1.19.1-.63.38-.64.38-1.62v-2l-3.58,0m4.15,0c-.05.64,0,1.3,0,1.94,1.24,0,1.49.32,1.49-1S118.6,91.21,117.37,91.21Zm54.68,1.53c1-.8-1.47-2.61-1.49.14,0,1.91.16,4.13,2.73,4.14a2.88,2.88,0,0,0,2.6-1.6c.18-.51.17-2.5-.85-1.84-.45.29.1,1-.27,1.4s-1.18.2-1.74,0c-1.18-.4-2.39-1.24-1-2.25m-28.67-1.12c0,.31.64.23.39-.18q-.33-.18-.39.18m16.19,0c-.22.84.45,2.53,1.49,1.47s-1.17-2.53-1.49-1.47m7.7,0c-.33.83.37,2.33,1.42,1.44s-1-2.47-1.42-1.44m-27,2.09c1,0,.16-1.68,0,0m-30.41,1.19c.22,0,2.6.06,1.55-.94A1,1,0,0,0,109.91,94.93Zm57.48-.85c.26.5.78,1.25,1.45.93.27-.12.35-.34.2-.75s-1.17-.23-1.65-.18m-50,.5c-1.36.26,1.32.47,1.49.48.43-1.46-1.55-1.36-1.49-.48m42.63-.5c-.54,1.15,1.71,1.24,1.11.23C160.9,94,160.48,94,160,94.08Zm-42.92,1.71c0,.37-.2,1.54,0,1.82s.87.58,1.3.26c.24-.18.22-.87.15-1.28a3.83,3.83,0,0,0,0-.83c-.16-.18-1.44.08-1.45,0m43.4.84c0,1.09.92,1.39,1.28.36.46-1.31-1.28-1.8-1.28-.36m7.42-.62c-.17.53-.15,2.69,1,1.88s-.61-3.08-1-1.88m-58.17-.17c-.11.9-.23,1.17.48,1.38s.75,0,.92-.32C111.76,95.65,110.4,95.84,109.7,95.84Zm61.65,3.79q-17,0-34.09,0-8.3,0-16.57,0H107.81c-.23,0-2.53.3-2.2.45a11,11,0,0,0,3,0h4.13l8.71,0q8.91.06,17.83.08l17.17,0c2.84,0,5.68,0,8.51,0l4.44,0c1.05,0,2.74.51,2.69-.83-.38-.1-.48,0-.72.27m-66.73.86c0,1.06.29,1.26,1.35,1.42a24,24,0,0,0,3.06,0h9.45q9.78,0,19.55,0l19.54,0,10.18,0h3.69l.05-.42c-.06-.36.08-.49.42-.4l1.06-.05c.07-.06,0-.53,0-.62-22.78.14-45.56,0-68.35,0m12.43,2.43c0,.94.31,2.18.29,3.31,0,.72-.37,2.23,0,2.84s.24.26.82.38l.71.17c.36,0,.5-6.32.22-6.78-.38-.64-.16-.23-1-.28s-1.06-.67-1.1.36m-9.41.13c.35.39,2.88.1,3.3.1,1.41,0,2.81,0,4.21,0,2.1,0,1.75-.85-.29-.86h-4.59c-.29,0-3.46-.21-2.63.76m53.84.56c0-.6.11-1-.48-1.3.21.12-1.55.3-1.43.21-1,.7-.45,3.48-.48,4.6s-.25,3.1,1.71,2.37c.71.21.93-.07.66-.82,0-.55,0-1.11,0-1.67,0-1.13,0-2.26,0-3.39m-39.4-.92c-1.28.91-.34,1-.56,2.12-.09.5-.58.63-.58,1.23s.78.82.89,1.38c-.35.35-.57.21-.83.74s-.34,1.44.42,1.4,1.23-1.4,1.78-1.89a6.43,6.43,0,0,1,3.78-1.55c1.24-.12,2.93.52,4.1.22,1.44-.36-.59-.5-1-.56a2.35,2.35,0,0,1-1.26-.55c-.3-.17-.33-.59-1-.66-1.15-.12-2,.93-2.93,1.5-.6.39-2.61,2.34-3.12,2.32-.32-.45.86-.91,1-1.19.24-.6-.19-.73-.09-1,.43-1.51.62.84,1.7-.24s-1.07-1.38-1.09-2c0-.47.55-.81,1-.75.74.09.15.47.23.69.25.67.46-.06.27.92.68.54,1.58-2.09-.44-2.27a1.71,1.71,0,0,0-1.57.65c-.29.48.13.78-.08,1.23-1.3-.72,0-1.14.23-2a5.51,5.51,0,0,0-.78.36m5-.1c-.08,0-.85.27-.88.31.09,1,5.08.89,4.8-.4-1.31,0-2.61.07-3.92.09m18.4,0c-1,0-2.15,0-2.47,1.3.57.48,1.06-.38,1.34-.4,1.8-.1.43.22,0,1a.89.89,0,0,0,.84,1.36c.68,0,.88-1.8,1.15-1.75s.19.81.38,1a2,2,0,0,0,1.09.52c.25,0,.51.65.88-.11.18-.39-.38-1.09-.65-1.45a2.81,2.81,0,0,0-2.6-1.4m16.75.34c.1.58,5.81.29,6.45.26.29,0,1.78.08,1.23-.56-.29-.34-1.5-.1-1.9-.1s-5.91-.29-5.78.4m-20.27-.25c-.49.58.51,1.28.88.64s-.52-1.08-.88-.64m9.43-.07c-.36,0-3.78-.32-2.9.83.41.54,3.74.24,3.86-.51-.12-.19-.8-.31-1-.32m-18,0c-1.79.14-2.73,1.43-4.13,2.43.85,1.3,1.22-.32,2.11-.64s1-.19.22.37c.34.33.32,1,.79,1.17.35-.49,1-.12,1.2-.43s-.18-1.17.12-1.55c.5-.64,1.11-.28,1.85-.26-.18-1-1.33-1.15-2.16-1.09m-13.5,0c-.48.16-.21,3.46-.21,3.89s-.14,3.64.62,2.52c.5-.75-.09-6.49-.41-6.41m18.38,0c-.49.44-2.88,3.46-3.29,2.58-.24.08-2.38,1.16-2.3,1.38a6.15,6.15,0,0,0,3-.18,9.74,9.74,0,0,0,3.71-2.87,6.46,6.46,0,0,0,1.93,1.79c.21.12,1.83.71,1.78,1.06-.08.73-3.41-1.94-3.66-2.31-2.93,3.87-7.4,2.79-11.52,2.56-1.63-.08-3.56.2-4.72,1.52-.22.26-1,1.06-.26,1.2.22,0,1.53-1.47,1.78-1.6,1.45-.75,4.23-.68,5.14.92.55,1-.23,1.85,1.12,2.27.92.29,2-.56,3-.65,1.62-.14,3.68.51,3.89,2.35a3.73,3.73,0,0,1-.25,1.32c-.08.1-.58-.12-.69,0-.61.89-.34,1.29-1.23,1.68a2.63,2.63,0,0,1,.16.88c-.45-.54-.63-.64-.48-1.47s1.17-1.08.07-2c-1.1.7-.78.43-1.76-.31-.41.72-1.28-.08-1.82.28-.82.56.4,1,.75,1.51s.17,1.47,1.19,1.6c1.26.15,0-.82.69-1,0,0,.52,1.73,1,2,.8.33.9-.32,1.58-.33,1.26,0,.28-.12.82.63.29.39.58,1.67,1.69.9s-.91-.7-1-1.4c.69,0,1,.6,1.74.58.21-.62-.54-.39-.54-.88.9,0,2.54.42,3.32-.06.55-.34.45-1.74.28-1.7,1-.27.38,1.34,1.74-.2.28-.31,2-2,2-2.4a.84.84,0,0,0-.87.31c-.23.36-.37.36-.43,0-.45.13-.88.16-1.32.27,0,0-.55-.09-.65-.07s-.94.55-1.16.62c-.5.16-.26-.46-.7.08.16-.2.29,1,.21.73.18.57.89,1.4.25,2-.58-1.34-2.15-.16-2.51-1-.23-.55,2.24.65,1.51-.87-.47-1-2.81.32-3-.63-.23-1.19,1.68-.07,2,0,.3-.92,0-1.76.76-2.6a4.52,4.52,0,0,1,3.79-1c1,.16,2.05,1.15,3.07.44s1-2.09,2.11-2.75a3.64,3.64,0,0,1,3.18-.27c.54.27,1.22,2,1.69,2.07,1.17.19-.81-2-.88-2.11a4.42,4.42,0,0,0-2-.68c-.42-.06-1.25.17-1.57-.1.78-1.21,3.73.29,4.4,1,.52.56.91,2.86,2.08,1.79s-1.35-2.22-1.86-2.73c-.87-.86-.55-.21-.09-1.13.08-.15.47-.86.53-.92,1,0,.15.77.15,1a1.43,1.43,0,0,0,1,1.55c.05-.79.69-1,.61-1.75,0-.46-.75-.78-1-1.23,0-.11.57-1-.21-1.27s-.24.58-.65,1-.29-1.08-.23-1c-.36-.37-.65-.33-1.13-.4s-2,.2-1.93.93,1.72-.47,2.17-.16-.38,1.88-.6,2.33a.77.77,0,0,1,.28.34c-.48.65-.69-.91-.74-1.07-.48.28-1.8,1.15-1.32,0-1.25-.22-2.79-.66-3.56,1a1.83,1.83,0,0,1,.48.4c0,.35-3.81.58-4.34.56a.68.68,0,0,1,.28-.71,2.46,2.46,0,0,0-.85-.54,1.52,1.52,0,0,0-1.69-.51,4.1,4.1,0,0,0-1.29-1.8c-.76-.62.32-.36-1-.73a8.58,8.58,0,0,0-2.09,0m-2,.44c0,.73.75-.11.65-.1s-.67-.47-.65.1m21.9,1.34c0,.34-.18,4.67.23,4.68s.16-6.26,0-6.2c-.39.1-.19,1.26-.19,1.52m4.65-.66c-1.13.84-1,1.63-1,3,.56-.54,2.48-2,3.33-1.49,1.66,1-.78,1.16-.76,1.41a15.67,15.67,0,0,1,1.84.83c.26.16.85,1.07,1.22.57.06-.38-.94-1.49.34-1.09.92.29.77,1.6,1.61.3.08-.11.57-.19.38-.58-.3-.62-.39-.07-.77-.23.16.07-.63,0-.6,0s-1-.32-1-.33c.25-.49,1.15-.29,1.78-.25-.1-.82.26-1.35-.46-1.75-.16-.09-.49.26-.7.23s-.28-.35-.67-.41c-.16,0-1.43-.42-1.35.19s1.2-.08,1.4.46l-.69.67a9.85,9.85,0,0,0-1.06-.81c-.44-.33-.19-.43-.78-.64a8.36,8.36,0,0,0-2.06,0m-46.57,5.59c-.55.51-1.2,2.16-2.17,1.84-.79-.26-.5-.8-.21-1.21.46-.66,1.65-.79,2.25-1.37a3.26,3.26,0,0,0,.91-2.61c-.13-2.11-2.43-2.4-4.22-2.19-1.2.14-3.18,1.47-1,1.68.48,0,1.42-.52,2-.52a2.38,2.38,0,0,1,2,.83c1.42,1.87-1.49,2.07-2.54,2.63-2.2,1.17-.53,2.65.61,3.72.78.73.71,1,1.84.22.43-.28,2.32-1.84,2.16-2.33-.25-.23-.72.12-.94-.07s.13-.39,0-.87a.62.62,0,0,0-.65.25M108,104.78c-.74,1.44,1.78.92,2.15.23.88-1.64-1.57-1.35-2.15-.23m37.66,1.37c.41.49,1.37.13,1.88.12-.06-.69-1.65-.66-1.88-.12m-30.6.06a.77.77,0,0,0-1.28.29c-.21.84.52.17.78.15s-.06.86.33.53c.18-.14.67-.56.17-1m47.14,1.3c-1.54,2.43,1.92,1.32,2.84,1.89.09.42-.89,1-1.19,1.06.46,1.81,2.59-.06,2.79-1.06s-.4-1.21-1.13-1.41c-1.29-.34-2.36.66-2.48-1-.26-.19-.74.33-.83.5m.67,3.83c-.46-.37-.89-1.23-1.49-1.23-.12,0-1.16.84-1.15.8,0,.39,1.14,1.18,1.48,1.55.19.2.74,1,1,1s1.26-1.24,1.41-1.44a3.68,3.68,0,0,1-1.3-.64m-5.14-.62c-1.08.29-1.83.25-2.64,1.26-.35.44-1,1.91.29,2,1,.06.42-1.85,1.53-1.74.59.06,1.78,2.67,2.27,3.09s1,1,1.7-.09c.57-.82.19-1.23-.64-1.88-.53-.4-.91-.57-1.4-.93a3.14,3.14,0,0,1-1-1.09c-.16-.33.66-.32.21-1a1.54,1.54,0,0,1-.36.36m-37.6,4.86c1.36-.43,3.17-1.47,2.72-3.18a2.9,2.9,0,0,0-3.5-1.75,9.42,9.42,0,0,0-3.16,2.74c-.64,1.26.75,2,1.7,1,.61-.59,1.66-3,2.83-2.26,1.36.8-1.27,2.17-1.72,2.5s-1.08.53-1,1.26c0,.33,1.07,1.15,1.38,1.21s1.78-.3,1.12-1-.66.92-1.41-.07a1.71,1.71,0,0,1,1-.46m4.53-3.63c0,.67,2.24,1.89,2.69,2.17,1.27.82,2.61,1.5,3.91,2.26,2.14,1.24,5.26,3.94,7.87,3.7s5.8-2.63,8-3.9c.94-.54,6.22-3.37,6-4.5-.14-.85-2,.8-2.41,1-1.38.89-2.8,1.72-4.21,2.58-2,1.21-5.1,3.33-7.48,3.51-2.59.21-5.74-2.57-7.82-3.79-1.28-.75-2.57-1.48-3.84-2.25-.25-.16-2.88-2.33-2.78-.83m-3.39,6.63c1.34,1.1,1.57-.46,2.44-1.62s2.88-2.33,1.59-3.53-1.3-.2-1.81.91a11,11,0,0,1-1.8,2.16c-.22.28-1.1,1.16-1.16,1.32a2.82,2.82,0,0,0,.74.76m36.27-1.32a13.16,13.16,0,0,0-2-2.27c-.36-.4-1.33-1.88-1.8-1.95a11.93,11.93,0,0,0-2.81,1.72c-.8.76-.71,1.06.38,1.87a4,4,0,0,1,1.55-1.76c.51.93.16,3.21.33,4.34.33,2.05,1,1.21,1.66.06.07-.13-.2-.3.25-.68.82-.68.47.2,1,.12s1.93-.55,1.5-1.45m-18.42-3.53c.29.08.34-.45,0-.39s-.22.25,0,.39m-11,8.34c.54-1.22,3.18-3.26,2.75-4.64-.7-2.3-2.08.66-2.42,1.19s-1.09,1.8-1.8,1.8-.78-.61-.52-1.2c.56-1.31,3.27-1.35,2.23-3.4-.58-1.14-3.5-1.35-2.8.16.39.84.86-.38,1.3.14s-1.14,1.34-1.4,1.51c-1.26.81-3,1.75-1.28,3a19.12,19.12,0,0,0,2.26,1.14c.71.4,1.25,1.26,1.68.26m21.59-4.27c1-.14.87-1.32,0-1.74-.67-.34-3.22,1.39-3.82,1.72-.94.52-1.48,1-.46,2s.85-.41,2-.9c.4,1.11.93,2.31,1.39,3.4s.5,1,1.48.44,1.28-.67.93-1.47c-.53-1.18-2-1.79-2.48-3.13a2.73,2.73,0,0,1,.91-.31m-18.24.79a4.72,4.72,0,0,0-2.14,4.18c.18,1.06,2.2,3.11,3.32,2.37.52-.34.91-2,1.19-2.56s1.44-1.87,1.44-2.48c0-1.45-2.72-2-3.81-1.51m11.8.59c-1.52.68,0,2.56.55,3.62.23.49.55,1.84,1,2.2.7.56.26.42,1.12.16,2.18-.68.58-1.81,0-3.07s-1-3.6-2.62-2.91m-1.15,1.28c-1.4-1.68-4.32,1.83-2.32,3.73.25.25,1.87.69,1.84,1.13-.08.89-1.49.19-1.8.87-.76,1.69,4.21,1.16,3.93-1.26-.2-1.79-2.15-.75-2.84-1.67s.52-1.28,1.29-1.12c0-.44.23-1.29-.1-1.68m-3.86,3.1c1.9-2.54-2.07-5-3-1.87a12.56,12.56,0,0,1-1.33,3c-.46.83-.71,1.35,1.4,1.86.15-.35-.12-1.78.61-1.8,1,0,.38,1.81.58,2.18.35.63,1.41.92,1.7.47.61-1-.87-2.47-1.19-3.13a2.41,2.41,0,0,0,1.19-.7"/>
      <path class="b" d="M154.11,115.43c0,.61-.27,2,.47,2C155.75,117.42,154.39,115.83,154.11,115.43Z"/>
    </g>
  </g>
</svg>
